<?xml version="1.0" encoding="UTF-8"?>
<svg id="Capa_1" xmlns="http://www.w3.org/2000/svg" version="1.1" viewBox="0 0 519.08 366.26">
  <!-- Generator: Adobe Illustrator 30.2.1, SVG Export Plug-In . SVG Version: 2.1.1 Build 1)  -->
  <defs>
    <style>
      .st0 {
        fill: #fff;
      }
    </style>
  </defs>
  <path class="st0" d="M286.34,298.67c0,4.11-3.33,7.44-7.44,7.44s-7.44-3.33-7.44-7.44,3.33-7.44,7.44-7.44,7.44,3.33,7.44,7.44ZM285.07,298.73c0-3.4-2.76-6.16-6.16-6.16s-6.16,2.76-6.16,6.16,2.76,6.16,6.16,6.16,6.16-2.76,6.16-6.16Z"/>
  <path class="st0" d="M250.14,295.52v9.99c-4.35.76-10.89,1.44-11.23-4.73-.35-6.44,6.89-6.07,11.23-5.26ZM243.73,296.25c-4.64.95-3.84,9.42,1.69,8.65,4.31-.61,4.96-10.01-1.69-8.65Z"/>
  <path class="st0" d="M193.91,295.52v9.99c-4.15.78-11.05,1.38-11.18-4.67-.14-6.73,6.54-6.02,11.18-5.32ZM192.81,300.48c0-2.36-1.91-4.27-4.27-4.27s-4.27,1.91-4.27,4.27,1.91,4.27,4.27,4.27,4.27-1.91,4.27-4.27Z"/>
  <path class="st0" d="M168.93,292.71c0-.08-1.19-1.45.3-1.54.14,0,1.06.62,1.86.62,3.88.03,8.89-1.3,9.12,4.06.31,7.08-7.34,3.48-9.45,4.94-1.65,1.15.86,5.81-1.84,5.35-.06-4.46.09-8.96,0-13.43h0ZM178.14,293.8c-.62-.61-6.85-1.51-7.38-1.14-1.21,1.87-.37,4.47-.6,6.62,2.13-.24,5.89.58,7.7-.58,1.27-.81,1.29-3.89.26-4.9h0Z"/>
  <path class="st0" d="M221.4,301.15c.46,5.06,5.97,4.43,8.74,1.25-.93,5.55-9.37,4.87-10-.92-.98-8.92,9.77-7.62,10.55-2.38.53,3.61-7.02,1.52-9.28,2.05h0ZM221.4,299.89c1.37-.19,8.01.88,7.49-1.54-2.06-3.57-7.41-2.64-7.49,1.54Z"/>
  <path class="st0" d="M348.89,300.49c0,3.08-2.5,5.58-5.58,5.58s-5.58-2.5-5.58-5.58,2.5-5.58,5.58-5.58,5.58,2.5,5.58,5.58ZM347.59,300.49c0-2.33-1.89-4.22-4.22-4.22s-4.22,1.89-4.22,4.22,1.89,4.22,4.22,4.22,4.22-1.89,4.22-4.22Z"/>
  <path class="st0" d="M305.57,295c8.43-1.72,8.84,12.18.53,11.13-5.87-.75-6.54-9.9-.53-11.13ZM311.03,300.5c0-2.34-1.9-4.25-4.25-4.25s-4.25,1.9-4.25,4.25,1.9,4.25,4.25,4.25,4.25-1.9,4.25-4.25Z"/>
  <path class="st0" d="M297.61,298.02c-2.15-2.12-4.75-3.01-6.85-.32,2.29,3.13,8.5,1.35,7.49,6.24-.74,3.55-7.67,2.18-8.74,0-.55-1.12.99-1.11,1.56-.94.23.06.34,1.02.73,1.26,1.81,1.06,3.33.56,5.2,0,.49-3.98-5.88-2.67-7.2-5.62-1.76-3.92,8.23-5.77,7.82-.62h0Z"/>
  <path class="st0" d="M261.91,296.24c2.13,3.47-1.73.4-2.36.19-1.67-.54-4.96-.77-4.42,1.9.28,1.39,9.38,1.51,7.21,5.94-2.02,4.14-10.11.43-8.45-1.25.67-.68,2.86,3.12,6.24,1.55,5.07-2.37-5.81-3.51-6.27-6.25-.8-4.76,7.13-3.58,8.06-2.08h0Z"/>
  <path class="st0" d="M325.1,297.09c-.03-.26-.86-.85-.62-1.56,5.16-.16,9.34-2.21,10.02,4.65.06.65.29,7.4-1.28,5.34.03-2.82.82-9.51-3.44-9.43-.44,0-3.44,1.13-3.44,1.31v8.74h-1.25c-.24-2.9.33-6.23,0-9.06h0Z"/>
  <path class="st0" d="M216.4,298.02c-.74.69-4.06-4.17-7.5-.33-2.81,3.13.02,7.92,3.93,7.09,1.45-.31,2.08-1.86,3.58-1.77.22,1.69-2.98,3.01-4.12,3.11-5.86.58-8.35-8.3-2.59-10.76,3.01-1.29,8.05,1.39,6.71,2.65h0Z"/>
  <path class="st0" d="M315.73,295.52c.91.05,1.72.65,2.68.53.49-.06,3.61-2.34,2.95-.22-.18.57-2.81,1.19-3.41,2.22-.41.69-.89,3.68-1,4.71-.13,1.18.65,2.18.64,2.46-.03.99-1.86.85-1.86,0v-9.69h0Z"/>
  <path class="st0" d="M203.91,294.9c1.11,1-3.4,2.33-4.05,3.76-.7,1.55.29,7.44-1.26,7.48-1.19.03-.67-1.9-.64-2.49.15-2.76.81-5.39-.3-8.11,1.61,1.43,6-.84,6.24-.62h0Z"/>
  <rect class="st0" x="233.9" y="290.52" width="1.25" height="14.99"/>
  <g>
    <g>
      <path class="st0" d="M215.31,236.42v15.82h14.18v-15.82h7.64v39.84c-1.18-.16-7.64.55-7.64-.82v-16.1h-14.18v16.91c-1.18-.16-7.64.55-7.64-.82v-39.02h7.64v.02h0Z"/>
      <path class="st0" d="M258.42,236.42v27.56c0,.19,1.12,2.62,1.38,2.98,2.57,3.57,9.09,4.01,11.72.3.48-.68,1.63-3.21,1.63-3.83v-27.01h8.18v27.01c0,13.66-21.58,18.48-28.83,7.01-.4-.62-2.27-5.03-2.27-5.37v-28.65h8.18Z"/>
      <path class="st0" d="M324.45,276.26h-7.91c-1.1,0-2.6-7.32-3.53-8.48-.69-.46-13.32-.49-13.72.07-.94,1.33-1.75,6.53-2.12,8.41h-7.91c-.06,0-1.06-.78-.59-1.1l13.93-38.48c1.59-.26,7.08-.76,7.95.28l13.91,39.3h0ZM310.8,260.43c-1.48-3.55-2.16-8.37-3.78-11.77-.31-.64-.47-1.46-1.39-1.34l-3.55,13.1h8.73Z"/>
      <path class="st0" d="M419.95,264.25l3.64,3.18c3.67,3.4,18.57,3.77,17.42-3.21-.8-4.83-7.81-4.19-11.35-5.03-4.79-1.14-8.92-3.6-9.66-8.9-1.77-12.73,10.67-16.87,20.98-13.35,6.64,2.27,2.72,4.81,3.51,10.4-2.63-4.39-17.5-7-17.32-.37.15,5.68,8.91,5,12.85,6.21,6.19,1.9,8.67,5.46,8.32,11.92-.74,13.26-19.81,14.41-28.4,8.16v-9.01h0Z"/>
      <path class="st0" d="M409.57,236.42v7.64c-.41.14-.65-.54-.82-.54h-12.83c-.95,2.61-.53,5.01,0,7.64h10.91v7.1h-10.65c-.05,0-.82.76-.82.82v8.73c0,.18.72.83.54,1.37h14.73c-.14,1.22.52,7.1-.82,7.1h-21.55v-39.84h21.32Z"/>
      <polygon class="st0" points="340.28 236.42 340.28 269.16 350.64 269.16 350.64 276.26 332.09 276.26 332.09 236.42 340.28 236.42"/>
      <path class="st0" d="M368.11,236.42v31.92c0,.05.76.82.82.82h9.28c1.1,0-.15,5.75.28,7.1h-18v-39.84h7.64-.02Z"/>
      <g>
        <path class="st0" d="M136.66,256.34c0,11.36-9.22,20.58-20.58,20.58s-20.58-9.22-20.58-20.58,9.22-20.58,20.58-20.58,20.58,9.22,20.58,20.58ZM107.46,266.24c6.53,6.47,18.98,3.51,20.4-6.22,2.97-20.54-21.9-22.68-23.81-5.8-.47,4.2.32,8.96,3.4,12.03h0Z"/>
        <path class="st0" d="M145.46,264.25c4.4,4.67,9.51,6.41,15.97,5.33,6.26-1.05,7.29-7.78.43-9.45-6.38-1.55-15.12-.9-16.35-9.84-1.77-12.74,11.23-17.22,21.38-13.2,6.09,2.41,2.4,4.35,3.12,9.69-2.26-.95-3.77-2.56-6.3-3.24-4.47-1.19-14.06-.85-10.22,5.82,2.58,4.47,18.81,1.18,20.3,11.93,2.04,14.74-13.25,17.99-24.48,14.11-.75-.26-3.85-1.42-3.85-2.15v-9.01h-.02,0Z"/>
        <path class="st0" d="M78.34,236.42v31.92c0,.05.76.82.82.82h9.55v7.1h-18v-39.84h7.64,0Z"/>
      </g>
    </g>
    <g>
      <path class="st0" d="M228.41,68.35c3.06-.09,1.78-2.17,2.46-2.19l1.36,2.18c1.35-2.06-3.32-4.49-1.63-5.99,1.15-1.02.85,1.55,1.9,1.09,1.58-.71-.24-2.76.56-2.72l3,1.64c.27-.27-.76-1.92-.54-2.17.66-.76,1.74,2.03,2.72,1.1l-1.09,1.08c3.11.4.57,3.4,1.64,5.46,1.01.1.69-1.82,1.17-2.1s1.59.09,2.29-.15c.78-.27.69-1.45,1.24-1.54.65-.11,3.73.33,2.87,1.58-.05.07-2.23.14-1.03,1.14.37.31,1.95-.42,2.47-.33.6.09.91.97,1.36,1.16.63.25,1.37-.28,1.53-.14.48.44-.68,1.77,1.72-.15-1.36,2.87,1.38,2.68,2.47,4.91,1.65.83-.03-2.69-.24-2.92-.45-.53-2.58-.12-1.67-1.42.05-.06,1.14-.91,1.21-.94.84-.33,1.27-.24,2.05.1,1.86.78-2.55.96-.03,3.18,1.84,1.62,2.34-2.02,2.11-3.19-.03-.18-2.33-.68-.17-2.44.83.67.97,3.96,1.37,4.36,1.19,1.21,1.04-1.65,1.27-2.05.19-.34,1.39.34.37-1.77,3.55.72.31,2.03.11,3.08-.11.56.61,2.67,1.52,1.83,1.09-1-1.17-3.48,1.65-2.73.14-.12-1.97-1.85-.02-3.04.22-.14,4.18.99,5.13.9.37-.04.42-1.08.6-1.13,2.15-.66,1.03,1.18,1.35,2.39.12.45,1.89.27,1.07,1.42-.05.06-.86-.15-1.04.41-.27.84.08,2.21-.53,3.1-.19.28-2.29.71-2.72,1.86-.05.15-1.16,3.8.22,3.39-.28-3.45,4.88-4.38,5.73-5.47,1.44-1.85-1.5.12-1.09-1.35,2.13-2.69,1.62-.17,2.22.24.14.1,2.05-1.07,3.39-.96,1.78.14.95,1.85,2.56,1.52l.53-1.09,1.64,2.72v-3.27c1.05-.03.5,1.71,1.91,1.64.59-.03-.17-2.31,1.1-1.64,1.15.61.05,2.82,2.46,2.17l-.27-3.26c1.06,1.33,0,2.64,2.45,1.63l-.28,1.64,1.92.81c-3.1,1.44-.31,1.19-.52,3.25-.03.2-2.63,1-1.14,3.21.36.53,1.3.09,1.1.91-1.37-.11-.66,1.35-1.91,1.11-.47-.09-.03-1.53-1.09-1.1-2.28.94,1.13,2.51,1.63,3.81l.81-1.63c1.1,4.59,1.67,1.05,1.89,1.1.57.11,1.98.88,2.47,1.36-2.15-.49-2.85,1.38-3.03,1.38-.51,0-1.42-.78-1.8-.53-.97.66-1.72,4.8-.08,3.23.16-.15.09-1.38.78-1.49,1.29-.22,3.75.81,4.14,2.33-2.58-.34-5.72.57-6.48,3.39-.38,1.42,1.97,2.31,1.58,3.97l2.72-.54c.09.9-1.23.64-1.63,1.36-.19.34.77.19,1.1.66.82,1.15-2.09,5.37-1.1,7.25l2.72-1.09c.11.58.26,1.78.7,2.08,1.09.74,1.91-1.19.95,2.28,1.83.47.8-1.35,1.1-1.65.15-.15,4.72.91.55-1.91,3.16-2.55-.03-1.63-.03-3.23,0-2.2,2.4-2.24,2.67-3.4.19-.79-.57-1.86-.39-3.04.22-1.47,2.15-3.1,2.36-4.15.15-.81-.42-1.63-.28-2.43.03-.21,2.45-1.26.85-3.67-.52-.78-2.79-.34-2.47-2.15.53.07,1.64,1.66,2.17,1.1,1.08-1.15-1.54-1.9-1.09-2.17l1.64-2.18c.91-.23.22.91.89,1.07.08.02,1.51-.06,1.59-.09.52-.23-.11-1.19.79-.97.49,2.22-1.92,2.34-2.72,3.81,2.28-.69,2.06.91,2.24,1.03,1.33.97,1.87-3,2.95-3.74,1.64,1-.41,1.43-.22,2.36.09.47,1.3,1.2,1.03,1.44-3.89-.26-1.35,5.65-6,3.83.41,1.39-.5,3.71,1.37,4.35,1.38.47.59-1.41.81-1.63,1.04-.97,2.22,2.03,3.28,1.1.26-.24-.78-1.86-.54-2.17,2.05-.79,4.09,1.26,2.72-1.64,1.04-.22,2.28.48,2.72,1.36.24.47-2.03-.11-.54,1.1,5.21,1.87,2.32-.13,3.53-1.93.41-.61,1.72-.73,1.92-.53.91.92-1.3,5.25-1.1,5.45,1.74-.67,3.31,1.38,4.19,1.54,1.32.23,4.73-3.25,3.46,2.83,2.44-2.09,1.2-.34,2.15.28,2.21,1.43,2.11-1.26,3.02-.81,1.67.63.68,3.16.82,3.27.22.18,2.24-.31,2.72.82-.86.26-1.55,2.34-1.67,2.42-.19.13-1.39-.73-1.59-.51-.98,1.14.73,2.18,2.18,1.64-1.47,2.08,1.55.93,1.63,1.09,1.13,2.24-.72,1.19-1.26,1.29-.47.09-.86.63-1.29.7-1.07.17-2.22-.95-3.2.73l-1.36-1.1v3.28c1.16-.46,1.89-2.72,3.27-.81l-2.17,2.45c3.62-1.02,1.44,0,2.29,1.53.31.55,2.58.72,2.61,1.74l-1.5.27-.41.82c-.91-1.94-2.08-3.13-3.83-4.35l-1.63,2.72c-.66-.68-4.56-3.32-5.19-2.72-.15.81.49,1.42.54,2.18-.29-.53-2.14-3.13-2.53-3.2-.24-.05-4.24,1.44-4.72,1.69-3.68,1.96,1.6,3.95,2.91,2.92.71-.54.03-2.06,1.04-1.96-.42,3.55,3.51,3.9,3.29.54.47.84.81,1.53,1.03,2.47-.54,1.41-2.91-.37-3.21,1.09s2.53.73,1.09,2.99c-1.38,0-2.72-4.44-2.99-4.35-.3.09-1.91,1.19-1.91,1.36.03.6,1.8.51,1.62,1.36l-3.27.28,1.63,1.35c-2.04,1.18-1.29-.68-2.45-.54-1.79.22-2.06,2.65-.28,3.01l-1.63,1.91c1.06.51,2.66-1.48,3.24-1.07.07.05.15,1.01.91,1.58.64.47,4.05.33,4.02,1.4,0,.1-1.39,1.52-1.61,1.36-.04-.03.11-.77-.15-.91-.63-.33-1.4-.12-2.03-.48s-.13-1.58-1.92-1.38c-.66.07-3.38,2.6-2.18,2.78,1.94.29.95-1.53,2.17-1.1.49.17.12,1.04.62,1.14.99.2,2.1-1.06,2.93.24-1.88.84-3.08,1.1-2.72,3.55-1.92.45-.53-1.63-1.62-2.47-1.88-1.46-5.22-.15-6.56,1.66-.21,1.24.42.77,1.22.69,1.58-.16,3.66-1.59,4.77-.14l-1.64.54,1.64.54c-2.91,2.43-2.91,1.38-5.47.53-.59-.2-1.4.29-1.54.2-.35-.22-1.52-3.96-3.3-1.21-.14.22-1.68,4.13-1.7,4.36-.1,1.27,1.78,2.86,1.1,4.6,3.71-1.21,1.19.45,2.18,3.28l2.17-.82c-2.37,2.03-2.53,5.3-5.46,6.83-.09-.49.07-1.11,0-1.64-2.24-.73-2.14.97-2.74,1.32-1.02.59-4.06,1.35-3.79,2.77.35,1.97,2.56-.41,3.15-.66.84-.37,1.96-.45,2.85-.71l-.55-1.08c.33-.08.9.1,1.1,0,.29,1.56,1.21,1.02,1.1,1.36-.58,1.59-3.05,1.1-4.14,1.86-.58.41-2.48,3.89-3.78,4.96-2.91,2.4-4.85,1.76-7.32,3.04-.41.22-3.73,3.49-3.85,3.78-.47,1.1.76.78,1.35.81,3.22.24,9.05-1.05,11.19-3.55,5-5.84,3.59-7.11,11.47-10.36,2.29-.95,3.78-4.52,4.35-6.83.91-.28.28,1.03.77,1.03.17,0,2.72-.65,3.03-.79.36-.17,5.71-4.66,6.19-5.15,2.04-2.12,2.22-5.24,3.16-7.78.17-.46,1.77-.78,1.05-2.6,2.24-.5,2.6,5.01.82,4.35-1.21-.44.53-2.07-1.37-1.63.71,1.17-1.29,5.78-1.1,6,1.03,1.12,1.06-2.04,2.16-1.09.1.09.31,1.6.83,1.62.81.03,2.97-7.52,3.7-8.8.24-.43,2.66-3.14,3.11-2.64l-1.1,3,1.64.54c-.87,1.24-1.87-.24-2.99.81-2.05,1.91.46,1.91.06,3.32-1.06,3.7-3.63,3.37-4.15,4.62-1.07,2.53,2.82-.74,3-.82.28-.13,1.23,3.81,4.09-1.37.05-.1-1.69-.75-1.62-1.64.14-1.72,2.62.92,3.26.27-.88-1.01.62-5.5,1.12-5.97.05-.05.81.45,1.22.33.85-.25,1.47-1.16,2.57-.9.22.77-2.09,1.03-1.63,1.62.04.05,1.08-.13,1.13.33.13,1.09-1.08,3.4-.04,5.14l1.63-.54-.53,1.64,1.1-.27c.32,1.22-.75.62-1.57,1.13-1.57.97-3.38,2.57-4.99,3.22-2.25.91-5.16-.14-4.36,3.01-1.07.09-.23-1.29-.66-2.06-.21-.36-2.29-1.23-2.9-1.27-2.7-.14-3.43,2.1-3.93,2.22-2.06.5-6.78-.62-6.07,2.9.72,3.52,7,2.97,9.73,3.13.6.43-2.68,1.8-3.48,1.67-.37-.06-.28-1.09-.66-1.11s-1.02.49-1.5.38c-1.04-.24-1.87-1.17-3.09-.92l.54,1.63c-3.04-1.35-5.4,1.52-8.18,2.45-.87.29-9.91,1.4-7.64,3.55.23.22,3.11-.71,2.72,2.18-.14.18-3.28-3.02-2.72.54-2.47-2.4-4.66.47-4.35,3.27,1.54.22,3.24-1.27,4.76-.69.24.09,3.85,2.91,4,3.11.62.85,1.08,4.44,2.9,4.09.67-.13,2.23-3.03,3.62-.53l-1.63,1.65c2.15.72,3.85,1.1,5.13-1.13.26-.46,2.17-4.66,1.96-4.86-2.87-.62-3.92,1.6-5.73,3.27-1.19-1.68,1.2-2.05,1.88-3.08s-.54-3.46,1.95-4.55l-.82,3.81c.45-.06,1.47.13,1.62,0,.63-.51.11-8.05,3.84-6.54l-1.1-2.16c2.62-.85,4.82-3.42,4.42,1.39-.1,1.29-1.58.24-1.14,1.87.64.13,2.44-.22,2.7.03s.69,5.11.58,5.97c1.66-.91.75-3.91,1.1-5.46,2.19-.39.14,1.31.76,2.2s4.67.72,2.34,2.55c-.4.31-2.04.4-2.01.97.03.46,1.44.69,1.57.88.12.17-.79,1.78-.49,2.12.24.28,1.97-.65,1.64.81-.16.73-.85-.44-1.52-.17-.98.4-1.34,2.22-.67,3.18-2.15-1.02-1.4.17-1.77.41-.44.28-1.05-.3-1.51-.09-.63.29-2.91,2.8-3.81,1.86-1.32-1.36,2.03-1.52,1.1-3.28,1.2,0,2.8-.37,3.28-1.63l-5.46-.54c-.33,1.85,1.41.77,2.18,2.18-1.9-.02-3.68-1.95-5.31-.41s.71,1.91,1.53,2.85c.43.49.34,1.47.66,1.78,1.35,1.36,4.42,1.03,5.89-.15.66-.53-.34-1.32.24-1.35,1.79-.09,3.74.21,4.09,2.18-3.58-1.21-5.95,2.33-9.69.69-1.39-.61-1.6-2.05-2.66-2.8-4.78-3.36-6.57,2.09-7.03,2.1l-8.84-10.28c-.59-.15-5.95.8-6.16,1.03-.91.97,1.84,1.55,2.42,2.21.51.57.91,1.35.84,2.15l-4.17-3.18-2.11-.68c-3.22,1.42-12.04,1.19-13.49,4.54-2.15,4.98,1.73,3.03,3.57,3.23.6.06,1.23.84,1.76.81,1.23-.06,2.95-2.88.81,1.82l2.17-1.1c-.31,1.48,1,2.84,2.06,1.5.24-.31,1.1-4.91,2.31-3.68.16.16-.84,1.22-.9,1.9-.09,1.31,1.95,1.49,1.44,1.91-.19.15-1.21.21-1.67.78-1.9,2.31,2.37,4.09,4.41,3.59l-1.64.54.55,1.63c-.94.93-6.16-5.56-6.54-5.76-1.61-.81-2.27,2.25-3.65-2.47-2.07.03-8.65-1.16-9.74.58-.49.78-.05,2.21-.53,3.29-.84,1.95-6.76,5.88-7.1,9.27.62,7.8-3.5,22.11,2.45,28.13,6.66,6.73,22.02,5.56,30.8,5.22l4.7,1.03c-23.89,1.11-47.84.28-71.75,0l-5.19-1.09h7.91c.64,0,3.39-1.28,4.5-1.51,4.21-.91,6.81-.11,9.97-4.22,3.46-4.52,5.21-17.93,4.34-23.43-.2-1.23-1.72-3.17-1.57-3.8.17-.71,1.75-.85,2.06-1.77.43-1.27.12-5.27-.16-6.76-1.44-7.72-7.83-3.53-13.4-5.97,1.22,2.01.02,3.87,0,5.99l-1.89-1.62c-1.16,2.2-6.24,6.16-6.22,1.34,0-1.5,6.45-1.53,6.97-3.35.32-1.1-1.01-2.17-1.07-3.24-.06-1.13,2.29-3.47.24-4.02-1.91-.51-3.51,2.51-5.1,3.01-1.9.6-3.23-.4-4.41-.07-1.29.34-2.6,1.97-4.74,2.36-.83.15-5.05.91-4.5-.96,1.24.68,3.25.38,4.35-.32.44-.28.47-1.14.62-1.24.14-.09,1.29.61,2.24.38.77-.18,1.48-1.33,2.44-1.47s1.97.66,3.05.39c.92-.24,3.47-3.32,5.71-3.66,2.73-.42,5.65,5.59,10.18,2.59,2.44-1.61-2.42-5.41-4.44-5.83-2.84-.58-7.05.23-9.98-.93-1.22-.48-1.81-1.69-3.01-1.91-1.53-.28-7.78-.74-9.16-.43-2.6.6-3.22,4.73-4.92,6.26-1.35,1.22-5.02,1.9-6.39,3.72-.19.78,2.83,2.82,2.75,4.85,0,.15-2.13,1.06-1.67,2.49-1.78-.48.41-3.35.41-3.56,0-.48-1.31-1.59-2.03-1.35.91,2.03-2.73,4.12-4.18,4.25-1.21.1-3.58-1.79-4.82-1.84-1.15-.04-2.77,1.19-3.95,1.29-1.05.09-2.01-.62-3.03-.35-.41.1-3.21,2.82-3.37,3.19-.36.89.91,1.81-1.94,2.73l-.27-1.63-2.46,1.63c-.27-.24,1.98-2.45,2.72-2.19l-1.36-1.1-.81,1.1-.55-1.63c2.94,1.15,9.87-2.67,5.46-4.37l-.27,1.64c-1.03-3.17-3.37-2.01-3.53-2.18-.14-.15.08-1.5-.53-1.96-.85-.64-3.89-.03-4.79.68-2.22,1.74,2.15,1.12,3.1,2.91l-8.17,1.64c-.45-3.1,2.54-1.78,4.35-2.45-.85-1.64-2.78-.21-3.2-.36-.14-.05-.59-1.91-2.25-1.55l2.72-1.35c-.75-1.81-4.74.41-4.35-1.91.67-.31,7.84,2.18,5.99,0-1.3-1.53-7.54-1.33-6.27-3.29.4-.6,1.85.57,1.38-.81-.21-.6-1.29,0-1.1-.54.54-1.64,1.92.15,2.47.28.35.08-.03-1.48,1.07-1.1.78,1.72,4.12,2.64,4.66.72.33-1.19-1.54-2.72-1.1-4.54,1.52,1.66,2.19.45,3.49.5.39.02.24,2.09,1.41.87-1.45-2.51-2.44-3.69-5.46-2.47.89-1.92-.85-1.33-2.18-1.64,5.32-3.88,1.29-1.97,1.1-2.16-.27-.28.42-2.14-2.05-2.63-1.57-.32-.56.2-1.91-.47-1.06-.53-2.39.49-2.04-1.28.83-.08,1.9.28,2.62-.14.06-.04.28-2.03,1.19-.94.22.25-.8,1.97-.54,2.17,1.92-1.12,3.14,2.15,3.66,2.2,3.34.34,1.37.53,2.77,1.07,4.71,1.82,6.6-2.12.68-.53,1.52-3.59-1.68-2.45-3.28-4.35,3.66-1.44,3.01,1.02,4.61,2.21,1.78,1.33,6.34,1.99,7.71,0,.42-.61-1.55-2.08,1.33-1.67-.41-1.2-.81-2.42-2.22-1.38-.3.22-.66,3.21-1.59,1.94-.14-.19.2-1.58-.24-2.22-.49-.71-3.74-.79-3.58-1.34l5.44.81c.08-.74.47-1.45.56-2.18,2.04.43.57,0,2.17-1.1-.81,2.53,3.23,2.78-.53,3.54.24,2.2,7.14,2.09,7.64,1.66,1.45-1.26-.98-3.12-1.36-.83-.53-1.25-3.9-1.23-4.1-1.92-.43-1.47,2.47-.08,3.52-.25.72-.12,1.81-1.25,1.94-1.1.09.11-.14,1,.17,1.46,1.7,2.5,3.55,3.25,5.27,4.84,1.58,1.47,4.05,5.11,6.42,5.61,1.38.29,5.16-1.89,7.23-1,.03-2.45-2.34-.97-4.09-1.36-1.36-.32-4.39-1.98-5.72-2.72,2.15-.52,5.77-1.51,4.91,1.91l1.65-1.64c3.37,4.55,3.6-1.47,0-1.65.33-1.57,1.47-.29,2.17-.81-.5-1.38-2.44-2.56-2.88-3.71-.52-1.35,1.39-2.75-2.28-2-1.35.28-3.29.82-4.82,1.19-.58.14-1.22,1.16-1.47.97-.09-.06-.03-1.2-1.22-1.78-1.83-.91-2.87.21-3.91.03-1.38-.24-3.2-3.52-.6-2.62.46.15-.07,1.35.81,1.1.78-3.74-3.61-3.76-3.27-7.09,1.4-.43,1.33,1.35,1.73,1.57.53.29,2.64-1.06,3.72,1.44.52,1.02-2.09.72-1.09,1.9.08.09,2.22,0,2.39-.03.41-.05.3-.96.68-1.06,1.94-.55,1.79.86,1.98.97.43.23,1.12-.43,1.53-.16s.4,1.29.53,1.37c.66.48,3.15-1.96,3.27-2.98.17-1.53-1.25-.46-1.59-.85-.35-.42.43-2.89-.92-3.19-.45-.1-1.22.63-1.77.41-.07-.03-.1-.81-.78-1.17-4-2.11-9.98-2.82-14.09-.7-1.95,1-3.29,2.97-4.87,4.41l1.09.26c.4.72-2.58,5.97.54,4.36-.06.9.11,1.85,0,2.72-1.63-.34-2.68-1.21-3.78-1.4-1.35-.24-2.97.96-3.85-1.04-.14-.32,5.93-1.23,1.64-4.63l-1.1,1.1c-.63-1.73,1.02-1.5,1.1-1.91.24-1.33-.93-.64-1.09-.82-1.19-1.37,2.67-.84,2.16-2.72-1.16.69-3.68.95-4.35-.53,1.66-1.11,3.12-1.16,4.91-2.19.18.6.7,2.73,1.37,2.72.62-.02.45-2.22,1.91-1.62l-.53,2.72c4.79-1.03.51-2.63-.87-4.92-1.44-.39-1.1.66-1.86,1.1-.15-.5.28-1.42-.12-2.05-1.79-2.84-13.59-4.47-14.07-5.05-.05-.06-.05-1.57,0-1.63.1-.1,1.92.33,2.17-1.37-.28-.67-1.82-.03-2.18-.28-.11-.07,1.11-1.59-1.09-1.64v-.53c2.37.49,1.9-1.62,1.64-3.29,2.52,3.2.6.53,3.27,0l.55,1.63-1.65,1.1c3.12-.4,2.52,3.34,4.91,3.83l-1.63-4.35,1.63.53c.14-2.6-1.41-2.59-2.72-.54-.09-.76.18-1.67,0-2.38-.15-.64-1.34,0-1.1-.89,1.35-.24,3.36.33,4.55,0,.41-.11.41-2.04,1.45-1.1.15.14-1.2,3.08.28,3.81,1.36.24.31-2.24.81-2.72.04-.04,1.16-.2,1.08.27l-.53,1.37h1.65c.31.98-.81,1.29-.95,1.98-.16.83.72,2.4.41,3.48,1.44-.2.9-2.51,1.1-2.72,1.4-1.63.87,3.59,1.1,3.82.63.62,2.5-.07,2.71-1.38.24-1.52-1.3-.48-1.62-.81-.18-.18,1.26-3.06-.28-4.9-1.19-1.41-2.91-.41-2.98-.55-.17-.37.25-1.4-.13-2.06-.22-.39-2.91-1.95-3.7-1.77l1.63-.81c-1.03-1.92-.73-3.33-2.72-4.64.87-.08,2.29.7,2.77,1.34,1.06,1.42-.41,2.47,2.15,1.39-.31.87-1.3,1.12-1.01,2.32.33,1.32,3.69,4.92,3.75,2.31.04-1.77-.83-1.13-1.06-1.77-.45-1.24-.48-1.71-1.13-3.15-.08-.18,2.47-.37,0-2.99,3.53-.14.91,5.76,3.68,4.15.74-.43.08-1.29,2.87-.35-.95-1.44-2.91-1.13-3.28-3.27,2.41-.78,6.83,2.14,4.64,4.38-1.01,1.03-2.98-.92-3.5.89-.26.91.57,2.61-.6,4,1.58.68,2.76.29,4.35,0,.3-1.03-1.19-1.59-1.05-2.39.11-.66,1.75-1.37,2.05-2.37.43-1.41-.6-3.85-.44-3.97.13-.11.93.17,1.19-.03.19-.14,1.34-2.35,1.53-.78.09.69-.49,2.3.81,1.9.72-.23.28-2.24,1.36-2.18l1.1,2.17-1.64.81,1.91,1.91-.28-2.17c1.6.24,1.87-.02,1.65-1.64,1.26,1.08.66,1.16,2.17,1.64-.41.71.95,1.56-1.64.55.36,1.1,1.9,1.46,1.64,2.72-2.56-.44-2.66,2.69-2.08,4.54.09.29,2.84,2.46,3.3,2.72.58.33,1.97.31,2.05.38.39.42-1.38,3.04.28,3.81l.53-1.63,1.38,2.17.53-1.09c1.4-.41.93.56,1.29.87,1.18,1,4.06,3.89,4.63.96.17-.89-1.1-1.88-1.41-2.79-.36-1.01.21-2.1-.67-3.15-1.16-1.36-4.69-1.95-6-.27l-1.1-4.36c1.12.26.16,1.59,1.76,2.34.85.4,2.97.63,4.09.83,1.66.29.41-2.54-.65-3.22s-1.73-.09-2.79-.45c-1.58-.55-1.2-1.54-1.32-1.67.6.13,1.1.3,1.63.54.82-3.34-1.63-1.12-1.63-3.28,4.3-.42.56,6.21,4.35,1.64-.81,2.47.87,2.54,1.26,3.4,1.45,3.23,1.62,2.95,3.25,5.47s.73,6.07,3.96,7.49c.78.04.97-4.87,2.45-3.8.22.15-.71,3.68,3.28,3.28-2.37,1.74.07,3.35,1.1,2.5.66-.53.69-2.78,2.15-3.05.33,1.05-1.14,1.43-1.01,2.37.05.38.76.99,1.02,1.45-1.84-.54-3.54.43-5.46.27.93,1.68,5.97,4.39,6.5,1.57.11-.61-.73-1.29-1.04-1.84,3.58,1.07.66,4.54,5.1,3.19,1.53-.47.28-1.8.46-2.8.14-.78,1.01-1.53,1.03-2.27,0-.34-2.17-1.08-2.73-1.7s-.58-1.74-1.12-2.15c-.7-.53-2.12-.11-2.72-1.1.37-.81,1.91.59,2.17.28.92-1.12-3.77-5.6-5.45-4.37-.15-1.1,1.25-.03,1.66-.9.45-.97.24-2.93-.03-4.01,2.2,1.84.17,5.73,3.81,6.54l1.65-2.17c-1.9,2.91-.54,4.32,1.1,6.82,1,.37,2.8,3.88,3.54,3.54,1.71-.79.25-4.6.25-6.25,0-2.62,1.14-6.92-.27-9.01-.58-.85-2.53-1.21-3.49-1.97-2.7-2.11-3.1-4.55-7.26-3.94-1,.15-3.87,1.82-4.23,1.51-.22-.18,1.1-1.58-.27-2.16-.65.52-1.31,1-2.18,1.03-1.55.05-2.34-2.31-3.01-1.59-.25.28,1.01,2.49,1.2,2.6.91.53,2.99-.55,3.16.66-.99-.26-2,.92-2.56,1-.66.09-1.1-.72-1.67-.84-.62-.14-1.4.34-1.78.12-.46-.27-.98-1.93-2.15-2.16l1.63-1.92,1.1,2.18c.29-.98,0-2.41.28-3.28.84-2.63,3.15-1.5,1.91,1.1,1.45.26,2.15-.69,3.01-1.63l.27,1.64c2.22-.17,2.91-.93.82-2.24-1.07-.67-1.86.18-2.47-.17-1.3-.78-1.75-8-5.99-.03l2.17.81c-1.11.05-2.23.06-3.33-.23-.65-.17-2.5-1.85-2.06-2.45.05-.07,1.91,0,1.03-1.12-.14-.17-1.91-.28-2.37-.53-.69-.39.12-1.77-1.44-1.95-.81-.09-1.66,1.34-2.19.84-.73-.69,1.86-3.4,3.27-1.1.19-2.21.28-3.18,2.73-2.73-1.99-2.28-3.47-.32-5.05.89-.18.14-.84-.24-1.22.17-1.1,1.16.54,2.53-1.35,2.22-1.43-2.07,2.53-3.14,1.63-4.91-.15-.29-5.59.22-6.54.53,2.72-1.68.94-2.01,1.22-3.48.38-2.05,1.75-.72,2.44-.56.41.09.97-.3,1.17-.15.24.17-.15,1.06.35.93.72-.18.1-3,1.37-1.64.16.17-.15,1.48,0,1.64,1.48,1.39,1.66-1.92,2.72-2.18.09.89-.07,1.84,0,2.72l1.63-1.91c2.19-.21.33,3.3.55,3.55.76.86,2.23-2.53,3.21-2.23.85-2.11-4.38-2.38-5.4-2.13-.16-1.54.22-2.45-1.1-3.81.12-.09,4.05,1.17,2.18-.54-.12-.11-2.11.18-2.46-1.64-1.8-.27.06,1.86-.27,2.17-1,.96-1.64-2.64-3.27-1.63-.61,1.73,3.1,1.99,3.28,2.18.24.26-.6,1.41-.59,1.88,0,.14,2.66,1.1.3,1.93-.37.13-.28-.92-.84-1.3-.42-.28-2.87-1.87-3.04-1.91-.84-.14-3.99,3.07-3.47-.6,1.61,1.52,2.63,1.04,1.62-1.1h1.65l-1.64-3.28h3.27l-1.62-1.37c1.01-.88,1.96-1.93,2.95-2.8.27-.23,1.02-.08,1.27-.34.29-.33-.02-2.21,2.09-1.87.2.03,2.66,2.88,2.41,3.1-.88-.62-4.66.28-3.75,1.58.09.14,1.58.09,1.02,1.69,2.32.53.15-2.34.54-2.72l2.72,1.63c-.85-1.86.45-2.32,1.64-3.54-1.17-.5-1.28-.48-1.09-1.91.9-.24.27.96.88,1.1,2.73.66,1.16-.92,1.84-1.38,3.3.72,1.6-.22,2.33-1.19.31-.41,1.31-.49,1.47-1.03.42-1.59-2.64-2.67-2.68-3.23-.11-1.58,2.05.28,2.44.29.25,0,.47-1.48,1.37-1.12-.84-.5-2.19-3.84-1.64-4.35.11-.1,1.25.14,1.77-.13.96-.48,1.72-1.85,2.87-1.51,1.59.45.22,2.6.28,3.28-.18,0-.36-.35-.54-.35-2.36,0,.41,3.62.97,4.56.23.38.02,1.15.12,1.25-.41-.18-2.07-.66-2.18-.54v2.18c2.34-.94,2.82,1.16,3,1.1,1.55-.57-.16-2.44-.81-2.72.09.09,1.78.5,1.64-.81-.18-1.59-1.93-2.2-2.18-4.64l-.07-.03v-.08h0ZM264.21,73.1c.72-.95,1.02-1.55-.33-2.02-1.41,2.29-1.22,4.07-1.65,6.54,3.53-.54.96-4.12,1.1-4.35.03-.04.66.1.88-.17h0ZM244.23,73.8c-2.75-.08-1.5,2.82-3.81.53-.2,1.78.1,3.05,2.17,2.72-.41-1.6,1.33-1.82,1.64-3.27h0ZM257.32,77.62c-.22-.1-.85.22-1.48-.15-.99-.56-2.13-3.71-3.16-3.66-.78.04-1.1,2.4-.8,2.71.15.15,1.37-.17,1.57.04.33.34-.29,2.24.32,3.26.72,1.19,1.22-.53,1.65-.52.24,0,1.53,2.8,3.78,2.72.45-.02-.04-1.72,1.39-1.12.7,1.58-1.96,1.85-1.05,3.22.18.28,5.11,2.35,5.69,3.3,2.09-2.11-3.31-2.44-4.13-3.65-.85-1.28.72-1.88.59-2.6-.15-.91-3.93-.83-4.37-3.56,1.4.64,1.76,1.59,3.28,1.64v-2.72h-3.28c.03.35-.05.75,0,1.1h0ZM236.59,77.62l-2.17-3.28c-1.53,2.82-1.4,3.47,2.17,3.28ZM265.51,76.54l-2.63,3.11c-.34.68.13,1.55.72,1.78,2.26.9,1.95-3.69,1.9-4.91h0ZM276.97,77.07c-2.35-.38-.13,2.86-.25,4.09-.07.68-1.3,1.82-.83,3.01l2.72-2.17,1.66,2.44c-1.69-.24-2.65,1.17-4.37.28l1.1,2.72c1.65-.46,3.39-2.61,5.09-2.13,2.21.62-.15,1.21-.2,1.38-.95,3.41,3.67,4.36.55.21l1.65-.28c.05-1.41-1.66-3.88-1.67-4.9,0-.21,3.58-2.53-.52-1.38v-1.64l1.09.55c.64-2.91-4.17-2.44-5.72-.55l-.27-1.64h0ZM237.61,82.06c-.22-.24-1.43-.03-1.86-.58-.22-.28.64-1.69-.53-2.22-1.06-.48-1.4,2.32-1.12,2.74.3.44,1.33.44,1.4.53.34.42-3.41,2.86,1.38,4.34,1.35.42.9-4.63.72-4.82h0ZM244.23,85.26c.81-1.89-.19-3.66-.81-5.46-1.22,1.43-1.01,4.64.81,5.46ZM230.05,80.36c-.31-.32-1.29-.24-1.1.82.22,1.19,1.4,1.53,1.58,2.28.15.66-.49,1.46-.36,1.72.17.37,3.37,2.9,4.26,2.26l-2.72-5.2c2.96-1.73.21-.83.09-.92-.35-.3.48-2.03-1.45.12-.56.05-.12-.93-.27-1.09h-.02ZM285.16,83.63c4.97-.52,1.76-5.31.28-2.16-.33.72-.34,1.41-.28,2.16ZM258.42,82.54c-1.97.33-2,2.34-4.35,1.1-.33,2.14.29,1.67,2.18,1.65-1,.72-.96,3.67-1.1,3.82-.19.22-1.03-.6-1.66-.3-.48.24-.05,1.95-.81,1.92-.28,0-.92-1.47-1.91-1.08-.43,4.09-2.54,6.17,3.28,5.99-1.67-2.47,1.36-1.49,1.65-2.45.83-2.78-2,.5-1.65-1.91,1.78-.84,3.01.82,4.91.54-1.81,1.03-1.34,3.69-1.71,4.28-.47.73-3.32-.41-3.07,2.93.34,4.54,5.87,5.64,5.87,3.97l-1.08-1.91c3.14,1.4,5.06,4.8,5.45-1.1l-1.1.28c-.42-1.1.94-.6,1.1-1.18.22-.81-.09-1.87.24-2.95.46-1.48,2.31-1.85,1.97-4.03-.15-1.03-1.02-1.3-1.36-1.98s-.14-1.67-.42-2.02c-.1-.14-2.78-1.6-2.95-1.64-.56-.1-1.62.62-1.83.43-.17-.15-1.49-3.72-1.66-4.37h-.02s.02,0,.02,0ZM241.33,84.36c-.56-.47-1.24-.82-2-.72.71,1.72-1.45,3.41-1.58,4.19-.19,1.15,2.72,3.46,3.2,1.49.33-1.38-2.11-3.18,1.65-2.41.26-.46-.88-2.22-1.27-2.54h0ZM248.59,92.36c.95-1.04-.2-3.64-.36-4.72-.23-1.52.97-2.52-1.54-4.01-4.06,3.2.22,4.62,1.11,6.54.14.3-.66,3.76.79,2.17h0ZM268.23,89.63c.87-.84.72-5.4-1.08-6,.52,1.7-.16,3.63-.03,5.17.07.78.34,1.57,1.1.83h0ZM288.88,87.89c.43-.69-.75-3.72-1.27-3.71-2.34,1.93-1.45,3.94-1.91,6.54,1.58.48,1.77-1.87,1.98-2.17.28-.41,1.06-.44,1.19-.66h0ZM233.32,90.72c-3.01-1.58-2.34,3.12-1.35,4.91l1.35-4.91c.89.47.88,1.38,1.4,2.15.24.35,1.07.44,1.22.7.2.31-.65,1.79.64,2.34l-2.17.53c.68.92,4.72,3.85,5.45,3.01,1.12-1.29-1.28-4.01-3.27-2.18.12-3.46,6.04,1.2,3.55-3.84-.35-.72-1.5-.81-1.77-1.22-.33-.51-.13-1.49-.65-2.34-.79-1.28-2.92-2.1-4.41-1.88v2.72h0v.02h0ZM219.78,89.47c-.15-.09-.1-.66-.11-.92-1.7.13-.25,4.72.54,5.19.96.56,5.53.48,5.46-.55-1.89-.57-1.31-1.81-1.67-2.41-.08-.13-1.43.04-2.83-.62-.24-.12-1.3-.63-1.38-.68h0ZM228.95,89.63c-6.4,1.85-2.11,2.44,1.1,3.82l-1.1-3.82ZM271.93,91.95c-2.1-2.75-2.67,3.91-3.3,4.62-.79.9-2.64-.03-2.03,2.34,2.22.38,2.45-1.1,3.6-2.09,1.03-.89,2.44-.28,2.37-2.47-.02-.44-.42-2.08-.65-2.39h0ZM287.83,93.91c-.94.74-2.31-2-2.93-2-.28,0-3.37,2.45-3.55,2.91l1.09.81c-2.48-.12-6.91,4.28-2.18,3.29-2.91,1.9-1.63,3.03-2.18,5.99l3.27.54c-7.52-.85-8.78,6.09-11.77,10.89-.58.92-2.06,1.67-2.34,2.61-.56,1.97,1.1,4.77,1.56,6.7l1.1-3.27c1.93.58.27,2.28.49,3.46.11.56,1.48.56,1.65,1.22.18.72-1.52,3-.48,5.95,1.53,4.35,5.35-1.11,5.35-2.16,0-.16-1.78-2.23-2.1-2.6-.82-.92-1.97.09.28-2.04.22,2.32,1.84,4.3,4.28,4.32,1.46-.43,2.37-5.72,3.49-6.49.12-.08,2.23-1.08,1.77.25-.18.36-4.34,5.35-1.91,4.64,1.96-.57,4.83-2.5,2.47-4.35,1.4-.16,1.65,1.48,3.03,1.66.22.03,4.06-.12,4.27-.16.43-.09,3.02-2.64,3.07-2.86.37-1.66-2.53-1.21-2.72-1.36-.15-.13.47-3.85.53-4.05.52-1.53,2.01-1.78,1.1-3.58l2.72,1.63-1.63-3.82c1.02-.05,2.28,2.8,2.44,2.72.89-.38,1.02-2.08.76-2.92-.41-1.29-4.25.16-1.03-1.71-3.02-2.47-8.22-4.8-6.86-9.58.41-1.42,3.03-1.07,1.95-2.15-.44-.45-4.81-1.35-5.45,0-.21-.24,2.91-7.78.54-5.45-.09.09.12.85-.07,1l.03-.02h-.03ZM276.16,92.36c-1.19.5-2.05,2.94-.54,3.27,1.29.28,2.97-3.25.54-3.27ZM241.5,92.9c.71,1.64-1.93,7.69.8,7.66,4.14-.05,5.5-8.03-.8-7.66ZM230.05,94.55l-2.97-.53-5.76,1.88c.57,1.31,2.11.19,2.17.28.26.36-.7,1.71-.53,2.41.04.15,2.82,1.4,2.98,1.4,1.29-.03-.52-4.84,1.91-4.35.53,2.22-.84,5.66,2.18,6-1.38-2.44-1.38-4.63,0-7.09h0ZM321.56,95.25c-.15-.15-1.42-.78-1.47-.71-.89,1.76.47,3.73.5,4.62.1,3.54-3.61,4.51,3.87,5.21.28-1.12-1.04-1.88-1.07-2.01-.47-2.04-.02-5.16-1.82-7.1h0ZM249.14,100.55c4.78.57,1.52-4.19-.82-5.45-1.13.04-.94,4.73-1.48,5.33-.34.38-1.67.09-2.06.93l2.47-.27c1.71,1.75-5.12.9-4.09,2.98.92,1.89,3.68.12,3.81.28.11.13-.13,1.53.51,1.96.94.64,3.1-.56,2.78,1.32l2.72-2.17c-.82,1.13.53,4.91,1.42,4.91.5,0,1.63-.77,1.85-.54.08.08-.18.97.16,1.45.24.33.87.43,1.11.81.47.69,2.28,5.1,3.63,3.76,1.67-1.67-2.88-5.75-3.73-6.91-1.13-1.53-3.96-6.3-5.3-7.24-1-.71-2.75-.08-2.97-1.12h0ZM231.14,99.45c1.04-1.11-.03-4.42-1.1-3.27-.22.24-.47,5.7,2.38,4.92.62-.16-.02-1.34.89-1.1.34,1.48-1.41,3.85,1.1,3.81-.9-2.78,1.07-5.06-3.28-4.36h0ZM268.79,104.92c1.5-.47,3.4.66,4.63.54,3.23-.29,2.72-6.43,1.1-8.18l-4.24,2.73c-.63,1.48-.61.88-2.03.53-1.14,3.35-.89,6.15-.81,9.57.03,1.18.6,1.96,1.81,1.25.24-.14,2.98-4.58,2.82-4.8l-3.28-1.64h.02,0ZM304.27,104.91l3.82-1.38c-1.94-5.07-4.27-3.28-3.82,1.38ZM239.81,101.69c-.18-.22-4.06-.82-4.3-.6-.23,3.52,3.87,1.64,3.28,4.36,1.28-.11,1.4-3.32,1.03-3.77h0ZM314.07,105.45c-1.23-.28-.89.19-1.27.71-.62.86-2.05,5.59-.56,5.89,4.73.16,2.85-3.65,1.83-6.6ZM318.91,108.12c.4-.6-.49-1.57-.72-1.56-.62.02-3.63,2.81.15,3.68,1.61.37,2.39.06,3.4-1.24-.83-1.06-3.68.41-3.81.28-1.04-1.01.96-1.1,1-1.16h-.02ZM238.78,109.26c.36-.47-3.36-2.85-4.36-2.17-.67,3.2,2.08,2.94,4.36,2.17ZM265.51,114.73c.53-.6-1.18-2.87-1.1-4.05.15-2.14,3.22-4.66-2.67-2.99-.62.92,2.73,8.21,3.77,7.04h0ZM327.72,108.19c-.28-.31-4.72,1.67-5.3,2.04-1.78,1.1-.03,1.54,1.28,1.69,2.91.34,4.51-.48,4.04-3.73h0ZM308.63,110.37l-.54-1.64c.69,2.56-3.82,1.45-2.46,4.36l1.37-1.65c3.09,1.84-1.29,2.09-1.83,3.4-.76,1.82.38,3.53-.35,5.33,2.24.55,1.51-1.12,2.46-2.18.55-.62,1.48-.91,1.74-1.26.45-.6,2.49-3.97,2.34-4.19-.05-.09-1.24-.14-1.63-.84-.43-.78,2.15-1.29,1.09-2.44-.54-.59-1.99,1.34-2.17,1.1h0ZM247.5,111.46c-.15-.21-1.78-.79-2.1.33-.28.97-.33,3.54.75,4.02,1.7.75,1.95-1.33.27-1.35.8-.43,1.53-2.38,1.09-3h0ZM255.69,111.46c-.36-.4-4.6-.81-4.91-.55-.3,3.16,6.35,2.12,4.91.55ZM250.14,112.67c-2.26-1.41-1.53,2.81-2.08,4.23,1.72.34,1.72-.51,2.45-1.63l4.64,2.72c-1.54-.29-3.24.32-4.65.28-.53,0-1.01-1.16-1.91-.6-2.05,1.29-1.72,7.05-.91,9.15.39,1.01,6.75,8.42,7.29,8.58.87.25,1.7-.43,2.55-.33.67.07,1.37,1.47,2.72.42.97-.76.23-3.01,1.45-3.31,1.17,5.15-4.81,4.14-4.35,8.41.24,2.24,4.37,7.72,5.99,9.6-1.4-3,3.48-6.84,3.7-7.98.07-.37-.36-6.61-.47-7.52-.13-1.05-1.35-6.89-1.85-6.87-.71,1-1.16,1.87-2.45,2.17l.27-2.18c-1.18,1.08-3.13.95-4.64,1.63l1.65-2.44-1.65-1.37,2.17-.55c-.58,2.66,1.81,1.42,3.83,1.64.4-.4-1.01-6.34-2.72-6.01-.06-1.02,1.63.06,1-1.81-.13-.37-5.59-4.86-5.94-5.02-1.01-.45-4.21.31-5.2.12-.64-.12-.62-1.18-.88-1.34h-.02v.04h0ZM300.16,114.75c-.86,1.33-6.9,3.81-4.12,5.75,2.94,2.05,6.55-2.99,4.12-5.75ZM315.11,116.97c-.09-.15-2.83-1.23-3.39-1.1-1.26.33-3.57,5.38-5.63,6.41-2.18,1.1-5.37,0-6.8,1.96-1.04,1.42.64,4.98.6,6.84,2.22-.53,4.11-2.02,6.54-1.65.15-1.03-1.33.03-1.06-1.32.33-1.66,4.59-3.17,3.79-6.32.9-.24.38.77.63.95,2.22,1.58,1.47-2.15,1.7-2.47.91-1.26,4.75-1.5,3.6-3.33v.02h0ZM205.87,120.36c-1.19-1.01-4.05.15-4.74.93-1.25,1.41,1.96.72,1.63,1.62-3.3.97-3.32,1.74-1.54,4.55.26.41,2.62,3.35,2.8,3.47.33.23,7.07,2.04,7.74,2.12.43.05.91-.38,1.38-.33.22-.99-.91-.34-1.1-.54-.53-.62,3.13-1.21,3.27-1.09,1.07.96-3.39,1.77-.27,3.28.37-1.79,1.17-.32,1.91-.78,1.19-.73.61-3.49-.91-4.06-1.67-.62-1.19.95-1.29,1-.33.22-1.42-1.77-2.98-1.67-1.82.13-.73,1.59-.83,1.67-1.16.79-1.05-1.05-1.44-1.12-1.31-.24-3.96,1.16-5.66.58-.6-2.09,2.74-.62,3.27-1.1l-1.1-2.17c.48-.41,3.68,2.7,4.91,1.09.14-.19-1.6-3.96-1.91-4.35-.61-.81-1.53-1.03-2.19-1.66-.47-.43-.63-1.17-.97-1.46h.02ZM197.31,126.19l-1.1-2.72c.3,1.45-.39,2.96,1.36,3.28,2.6.47,1.91-.51,1.91-2.72-1.85-.57-.85,2.03-2.17,2.17h0ZM311.26,126.63c.05-.07-.46-1.38-.72-1.53-.28,1.72-3.82,1.99-3.54,3.53.17.97,1.91.6,2.33.28.6-.45.39-1.12.72-1.58.37-.49,1.1-.56,1.21-.72h0ZM295.8,126.21c-.45,0-6.07,5.62-6.19,6.39-.5,3.22,5.86,4.9,4.6,8.91-.39,1.24-5.9,6.92-1.67,7.65s2.3-4.59,2.53-6.19c.22-1.45,2.49-3.08,2.63-4.5.13-1.28-.93-2.55-1.04-3.84s.43-8.43-.86-8.41h0ZM201.67,131.1c1.03-1-3.58-5.08-4.65-3.28-.28.48.54,1.94.29,2.72l2.17-1.1c-.28,2.06.33,1.72,2.18,1.64h0ZM288.44,128.38c-.67-.65-3.72,2.53-4.41,2.96-2.47,1.55-5.25,2.67-7.64,4.92-.55.53-3.45,3.7-3.56,4.11-.54,1.92.84,3.79,2.24,4.91,1.58-1.96,6.09-4.82,3.55-7.08,1.5-.47,2.03,1.34,2.58,1.66,1.22.71,2.67-.9,2.33,1.07-.79.34-2.99-.73-3.24-.53-.17.14-1.15,3.26-2.21,3.81l2.18.54c-1.88-.51-2.95,1.1-4.22,1.51-1.2.4-2.6-.24-3.74.62-1.22.91-.7,2.68-1.1,3.34-.22.35-1.07.53-1.3.95-.9,1.59-2.78,6.44-2.68,8.08.08,1.47,2.49,2.41,2.63,3.31.09.61-.92,1.31-1.02,2.13-.15,1.27.15,2.6-.03,3.79-.53,3.55-1.85,7.02-1.63,10.65.74.02,1.06.18,1.66-.36.39-.35,5.75-8.24,5.86-8.75.32-1.43,1.16-7.18,1.22-8.64.13-2.55-1.27-3.72,1.07-6.24-.75-.39-2.63.66-2.72.54s.11-1.06-.29-1.61c-.43-.62-1.5-.27-1.35-1.11,2.47.53,2.28-1.8,4.91-1.65.72,1.4-2.54,1.53-1.63,2.72.05.08,1.73.53,1.85.52,1-.22.78-2.06.88-2.15.06-.06,1.1.63,1.79.48,1.01-.23,4.73-5.11,5.3-6.47l.53,1.64h1.64c-1.23-2.34,2.67-6.73,2.58-7.92-.14-1.7-7.25-7.07-2.03-11.72h0ZM197.3,131.11c-.71-.85-4.25-1.38-5.45-1.1-.27,1.87.58.7,1.01.84.61.21,6.16,2.34,4.44.25h0ZM225.59,131.22c-1.52-.89-1.58.98-1.85.99-.71.03-1.96-.91-2.97-.56,1.35,1.28,3.21,6.69,5.26,7.03.21.03,3.84-1.2,4.03-1.29.93-.47.28-.64-.02-1.1-1.23-1.87-3.25-3.19-4.46-5.07h0ZM253.5,146.38c1.16-1.19-5.62-13.37-8.11-13.9-2.64-.57-5.31,2.24-1.16,2.45-3.01,2.91,3.4,5.25,5.13,7.14.71.76,2.64,5.84,4.15,4.31h0ZM213.12,136.01c.26-2.49-6.34-3.33-7.09-2.72-.15,1.1-.09.9.68,1.22,1.75.74,4.5.78,6.41,1.49ZM199.48,134.38c-.2-.22-4.55.33-3.28,2.17.76,1.09,4.49-.88,3.28-2.17ZM221.69,137.82c-1.12-.91-5.03-.64-4.19,1.19.53,1.12,2.29.58,2.66.91s-.59,2.22,1.42,1.56c1.16-.38,1.3-2.68.1-3.67h0ZM242.65,142.51c-.27-.22-.22-4.25-3.04-4.6-1.56.61-11.11.07-11.74.84-1.4,1.72,2.84,2.44,4.15,2.66,3.88.66,4.39,1.1,7.73,2.09,2.49.72,5.22.68,7.76,1.24.22-2.78-4.39-1.85-4.85-2.23h0ZM302.59,147.99c.14-.13,1.08-3.45.9-3.78l-4.67-3.82c-.94,1.96-.6,6.71,1.58,7.4.51.15,1.92.45,2.2.21h0ZM235.93,144.31c-1.16-.68-3.62.51-5.05.46s-2.6-1.02-3.77-.97c-1.43.05-1.31,1.51-2.82,2.02-1.89.64-2.42,0-4.07-.53-.35,1.1.78,1.8.91,2.54.13.68-.54,1.38-.13,2.34.1.24,3.09,3.75,3.29,3.9.73.51,4.18,1.25,4.92.5,1.97-2-1.31-4.38,2.44-4.37-1.29,2.29-.03,1.88,1.1,3.27l-2.72.82c1.01,1.16,2.56.71,3.78,1.66,2.7,2.11,3.51,8.83,8.23,8.2,1.07-.14,5.24-2.41,4.35-3.58-1.67-1.23-3.39.46-4.37.24-1.38-.29-2.91-3.23-3.27-4.61l3.01,2.72.28-2.18,1.1-.53c.99.62.99,2.72,2.46,3.27s.2-1.83,1.35-1.63c0,.66.11,1.38.53,1.93,3.1,4.09,7.79,7.57,9.79,12.04.21.46.31,1.77,1.14.77.39-.47.68-6.32.52-7.34-.12-.74-1.7-4.42-2.13-4.96-1.4-1.75-5.1-.89-7.36-4.64-1.22-2.01-.93-5.74-1.91-6.82-1.77-1.93-7.88-1.39-9.99-1.88-.72-.16-1.11-2.34-1.58-2.63h-.03ZM255.69,151.84c-6.36-3.3-4.94,2.61,0,3.26-2.21-2.47-.24-1.38,0-3.26ZM203.3,156.75c-1.23-.67-3.5-1.21-4.75-.37-.27.18-.09.85-.15.91-.21.21-2.57-.42,0,1.91l-1.09.27,1.09,1.1c-2.15,2.84-2.9-1.35-2.19-3.29-2.34.89-4.55,1.29-5.96,3.62.33,2.64,3.77,1.93,4.75,2.51.34.21.47,1.38.94,1.51,1.26.34,1.89-1.59-.28-1.66.86-1.95,1.1-.41,2.24.22,1,.55,2.12,1.09,3.21,1.43l-3.27-.55c.33,2.98,3.76,1.65,5.11,1.79,1.28.14,2.24,1.45,4.43,1.53,6.96.25,7.93-7.59,3.87-7.16-1.35.14-3.82,2.25-5.96,1.13-.76-.4-.24-1.1-.36-1.67,1.09.46,2.18,1.47,3.47,1.03.44-.15,2.24-2.14,2.01-2.91-.09-.3-4.61-3.52-5.24-3.58-2.26-.22-1.55,1.19-1.87,2.19v.03h0ZM282.5,162.3c.28-.27,1.48-.06,2.13-.34,1.39-.62,7.27-3.49,7.56-4.49.82-2.82-2.84-3.43-5.03-2.28-1.78.94-5.53,5.85-5.79,7.85-.14,1.08.2.85,1.09.81.03-.42-.16-1.32.06-1.54h0ZM223.5,155.11c-.15,1.24.05,2.73,1.44,3.1.26.07,4.78.43,5.19.41.72-.05,2.44-.37,2.64-1.06.94-3.15-4.19-1.4-5.21-1.43-.96-.03-2.73-1.14-4.06-1.03h0ZM234.96,160.57c-.08-2.92-5.04-1.26-6.54-.27l6.54.27ZM219.12,163.85c-3.97.03-3.47,2.93-6.34,4.3-1.59.76-7.71,1.78-8.33,2.88-.24.43.33,2.47.53,2.6.52.35,2.13-.34,2.96-.39.63-.04,1.37.51,2.07.34.95-.22,2.28-2.47,3.46-3.11,3.51-1.93,6.71-.31,5.66-6.62h-.02ZM203.3,168.22c-.71-.61-3.33.91-4.18.96-1.11.06-2.34-1.55-3.45-.69.27,3.03,9.45,1.29,7.63-.27h0ZM203.85,171.49c-2.33.73-7.01-.84-7.65,2.17-.9.03-.24-1.87-1.9-1.1-.45.22-.79,1.1-.83,1.64h-.53c.35-1.51-1.71-1.39-2.73-.82,1,1.26,1.62,2.88,3.47,2.46.17-.04.8-1.94,1.98-1.1.28.21-1.52,1.33-1.1,2.17,3.68,1.4,4.49-.78,7.63-1.09l-2.18,2.17c1.98-.25,4.15-.9,2.72-2.99,1.12-1.23.98.6,1.39.67.14.03.59-.41.71-.3.54.46,1.03,2.31,2.29,2.89,4.29,1.96,4.57-4.36.3-4.08-.98.06-2.1,1.1-2.22,1.08-.22-.03-1.26-2.79-3.53-1.63.2-1.15,2.58-.28,2.17-2.17h0l.02.02h0Z"/>
      <path class="st0" d="M203.3,156.75c.89.48,1.48,2.49,1.64,3.28-1.51-.63-2.35-1.53-2.53-1.58-1.41-.49-3.97,1.64-4.02-1.15,1.09.85,4.55.55,4.91-.54h0Z"/>
      <path class="st0" d="M208.76,112c1.55-2.64,1.26.64,1.78,1.49.07.12,1.42,1.1,2.04,1.78-1.26-.28-1.96-.52-3.28,0-.58-.68.65-3.15.53-3.27-.1-.11-.78.09-1.1,0h.02Z"/>
      <path class="st0" d="M336.42,144.24c.08.05-.05,1.03.31,1.09,1.71.24,2.64-2.63,5.17.79-2.62-.38-1.81.06-.54,1.91-1.1.22-1.43-1-2.47-1.1-.77-.07-2.18.75-2.44.56-.18-.14-1.79-4.54-.03-3.23h0v-.02h0Z"/>
      <path class="st0" d="M286.72,115.74c-.15.26-1.29.37-1.55.91.82,1.34,2.27.55,3.45.82.52.12-.07,1.74,2.13.5.66-.38.14-1.23.96-1.04.54,2.03-.92,1.51-1.67,2.42-1.16,1.42-.15,2.4-3.78,2.5.19-.84-.59-1.8-.59-2.43,0-.46,1.72.04,1.12-1.39-.6-.2-1.96.6-2.11.48-2.36-1.75,1.35-3.5.48-5.94,1,.23,2.01,2.42,1.55,3.19h0Z"/>
    </g>
  </g>
</svg>