<?xml version="1.0" encoding="UTF-8"?>
<svg id="Capa_1" xmlns="http://www.w3.org/2000/svg" version="1.1" viewBox="0 0 519.08 366.26">
  <!-- Generator: Adobe Illustrator 30.1.0, SVG Export Plug-In . SVG Version: 2.1.1 Build 136)  -->
  <defs>
    <style>
      .st0 {
        fill: #fff;
      }
    </style>
  </defs>
  <path class="st0" d="M289.14,311.62c0,4.54-3.68,8.22-8.22,8.22s-8.22-3.68-8.22-8.22,3.68-8.22,8.22-8.22,8.22,3.68,8.22,8.22ZM287.74,311.69c0-3.76-3.05-6.81-6.81-6.81s-6.81,3.05-6.81,6.81,3.05,6.81,6.81,6.81,6.81-3.05,6.81-6.81Z"/>
  <path class="st0" d="M249.15,308.14v11.04c-4.8.84-12.03,1.59-12.41-5.23-.39-7.11,7.61-6.7,12.41-5.81ZM242.07,308.95c-5.13,1.05-4.24,10.41,1.87,9.56,4.76-.67,5.48-11.06-1.87-9.56Z"/>
  <path class="st0" d="M187.04,308.14v11.04c-4.59.86-12.21,1.52-12.35-5.16-.15-7.44,7.22-6.65,12.35-5.88ZM185.82,313.62c0-2.61-2.11-4.72-4.72-4.72s-4.72,2.11-4.72,4.72,2.11,4.72,4.72,4.72,4.72-2.11,4.72-4.72Z"/>
  <path class="st0" d="M159.44,305.04c0-.09-1.32-1.6.33-1.7.16-.01,1.17.68,2.06.68,4.29.03,9.82-1.44,10.07,4.48.34,7.82-8.11,3.84-10.44,5.46-1.82,1.27.95,6.42-2.03,5.91-.07-4.93.1-9.9,0-14.84h.01ZM169.62,306.24c-.68-.67-7.57-1.67-8.15-1.26-1.34,2.07-.41,4.94-.66,7.31,2.35-.27,6.51.64,8.51-.64,1.4-.89,1.42-4.3.29-5.41h.01Z"/>
  <path class="st0" d="M217.41,314.36c.51,5.59,6.59,4.89,9.65,1.38-1.03,6.13-10.35,5.38-11.05-1.02-1.08-9.85,10.79-8.42,11.65-2.63.59,3.99-7.75,1.68-10.25,2.27h0ZM217.41,312.97c1.51-.21,8.85.97,8.27-1.7-2.28-3.94-8.19-2.92-8.27,1.7Z"/>
  <path class="st0" d="M358.24,313.63c0,3.4-2.76,6.16-6.16,6.16s-6.16-2.76-6.16-6.16,2.76-6.16,6.16-6.16,6.16,2.76,6.16,6.16ZM356.81,313.63c0-2.57-2.09-4.66-4.66-4.66s-4.66,2.09-4.66,4.66,2.09,4.66,4.66,4.66,4.66-2.09,4.66-4.66Z"/>
  <path class="st0" d="M310.39,307.57c9.31-1.9,9.77,13.46.59,12.29-6.48-.83-7.23-10.94-.59-12.29ZM316.42,313.64c0-2.59-2.1-4.69-4.69-4.69s-4.69,2.1-4.69,4.69,2.1,4.69,4.69,4.69,4.69-2.1,4.69-4.69Z"/>
  <path class="st0" d="M301.59,310.9c-2.37-2.34-5.25-3.32-7.57-.35,2.53,3.46,9.39,1.49,8.27,6.89-.82,3.92-8.47,2.41-9.65,0-.61-1.24,1.09-1.23,1.72-1.04.25.07.38,1.13.81,1.39,2,1.17,3.68.62,5.74,0,.54-4.4-6.5-2.95-7.95-6.21-1.94-4.33,9.09-6.37,8.64-.68h0Z"/>
  <path class="st0" d="M262.16,308.93c2.35,3.83-1.91.44-2.61.21-1.85-.6-5.48-.85-4.88,2.1.31,1.54,10.36,1.67,7.97,6.56-2.23,4.57-11.17.47-9.33-1.38.74-.75,3.16,3.45,6.89,1.71,5.6-2.62-6.42-3.88-6.93-6.9-.88-5.26,7.88-3.95,8.9-2.3h-.01Z"/>
  <path class="st0" d="M331.96,309.87c-.03-.29-.95-.94-.69-1.72,5.7-.18,10.32-2.44,11.07,5.14.07.72.32,8.17-1.41,5.9.03-3.12.91-10.51-3.8-10.42-.49,0-3.8,1.25-3.8,1.45v9.66h-1.38c-.26-3.2.37-6.88,0-10.01h0Z"/>
  <path class="st0" d="M211.88,310.9c-.82.76-4.48-4.61-8.29-.36-3.1,3.46.02,8.75,4.34,7.83,1.6-.34,2.3-2.05,3.95-1.95.24,1.87-3.29,3.32-4.55,3.44-6.47.64-9.22-9.17-2.86-11.89,3.32-1.42,8.89,1.54,7.41,2.93h0Z"/>
  <path class="st0" d="M321.61,308.14c1.01.06,1.9.72,2.96.58.54-.07,3.99-2.58,3.26-.24-.2.63-3.1,1.31-3.77,2.45-.45.76-.98,4.07-1.1,5.2-.14,1.3.72,2.41.71,2.72-.03,1.09-2.05.94-2.05-.01v-10.7h-.01Z"/>
  <path class="st0" d="M198.08,307.45c1.23,1.1-3.76,2.57-4.47,4.15-.77,1.71.32,8.22-1.39,8.26-1.31.03-.74-2.1-.71-2.75.17-3.05.89-5.95-.33-8.96,1.78,1.58,6.63-.93,6.89-.69h.01Z"/>
  <rect class="st0" x="231.21" y="302.62" width="1.38" height="16.56"/>
  <g>
    <g>
      <path class="st0" d="M210.68,242.85v17.48h15.67v-17.48h8.44v44.01c-1.3-.18-8.44.61-8.44-.91v-17.79h-15.67v18.68c-1.3-.18-8.44.61-8.44-.91v-43.1h8.44v.02Z"/>
      <path class="st0" d="M258.3,242.85v30.44c0,.21,1.24,2.89,1.53,3.29,2.84,3.94,10.04,4.43,12.95.33.53-.75,1.8-3.55,1.8-4.23v-29.84h9.04v29.84c0,15.09-23.84,20.42-31.85,7.74-.44-.69-2.51-5.56-2.51-5.93v-31.65h9.04Z"/>
      <path class="st0" d="M331.24,286.86h-8.74c-1.22,0-2.87-8.09-3.9-9.37-.76-.51-14.72-.54-15.16.08-1.04,1.47-1.93,7.21-2.34,9.29h-8.74c-.07,0-1.17-.86-.65-1.22l15.39-42.51c1.76-.29,7.82-.84,8.78.31l15.37,43.41h-.01ZM316.17,269.38c-1.64-3.92-2.39-9.25-4.18-13-.34-.71-.52-1.61-1.54-1.48l-3.92,14.47h9.64Z"/>
      <path class="st0" d="M436.74,273.6l4.02,3.51c4.05,3.76,20.51,4.17,19.24-3.55-.88-5.34-8.63-4.63-12.54-5.56-5.29-1.26-9.85-3.98-10.67-9.83-1.95-14.06,11.79-18.64,23.18-14.75,7.34,2.51,3.01,5.31,3.88,11.49-2.91-4.85-19.33-7.73-19.13-.41.17,6.27,9.84,5.52,14.19,6.86,6.84,2.1,9.58,6.03,9.19,13.17-.82,14.65-21.88,15.92-31.37,9.01v-9.95h.01Z"/>
      <path class="st0" d="M425.28,242.85v8.44c-.45.16-.72-.6-.91-.6h-14.17c-1.05,2.88-.59,5.54,0,8.44h12.05v7.84h-11.76c-.06,0-.91.84-.91.91v9.64c0,.2.79.92.6,1.51h16.27c-.15,1.35.57,7.84-.91,7.84h-23.81v-44.01h23.55Z"/>
      <polygon class="st0" points="348.73 242.85 348.73 279.02 360.18 279.02 360.18 286.86 339.68 286.86 339.68 242.85 348.73 242.85"/>
      <path class="st0" d="M379.47,242.85v35.26c0,.06.84.91.91.91h10.25c1.21,0-.17,6.35.31,7.84h-19.89v-44.01h8.44-.02Z"/>
      <g>
        <path class="st0" d="M123.79,264.86c0,12.55-10.18,22.73-22.73,22.73s-22.73-10.18-22.73-22.73,10.18-22.73,22.73-22.73,22.73,10.18,22.73,22.73ZM91.54,275.79c7.21,7.15,20.97,3.88,22.54-6.87,3.28-22.69-24.19-25.05-26.3-6.41-.52,4.64.35,9.9,3.76,13.29h0Z"/>
        <path class="st0" d="M133.51,273.6c4.86,5.16,10.51,7.08,17.64,5.89,6.91-1.16,8.05-8.6.48-10.44-7.05-1.71-16.7-.99-18.06-10.87-1.95-14.07,12.41-19.02,23.62-14.58,6.73,2.66,2.65,4.81,3.45,10.71-2.5-1.05-4.17-2.83-6.96-3.58-4.94-1.32-15.53-.94-11.29,6.43,2.85,4.94,20.78,1.3,22.43,13.18,2.25,16.28-14.64,19.87-27.04,15.59-.83-.29-4.25-1.57-4.25-2.38v-9.95h-.02Z"/>
        <path class="st0" d="M59.37,242.85v35.26c0,.06.84.91.91.91h10.55v7.84h-19.89v-44.01h8.44-.01Z"/>
      </g>
    </g>
    <g>
      <path class="st0" d="M225.15,57.19c3.38-.1,1.97-2.4,2.72-2.42l1.5,2.41c1.49-2.28-3.67-4.96-1.8-6.62,1.27-1.13.94,1.71,2.1,1.2,1.74-.78-.26-3.05.62-3.01l3.31,1.81c.3-.3-.84-2.12-.6-2.4.73-.84,1.92,2.24,3,1.21l-1.2,1.19c3.44.44.63,3.76,1.81,6.03,1.12.11.76-2.01,1.29-2.32s1.76.1,2.53-.17c.86-.3.76-1.6,1.37-1.7.72-.12,4.12.37,3.17,1.74-.06.08-2.46.15-1.14,1.26.41.34,2.15-.46,2.73-.37.66.1,1,1.07,1.5,1.28.7.28,1.51-.31,1.69-.15.53.49-.75,1.96,1.9-.17-1.5,3.17,1.52,2.96,2.73,5.42,1.82.92-.03-2.97-.26-3.23-.5-.59-2.85-.13-1.84-1.57.05-.07,1.26-1,1.34-1.04.93-.36,1.4-.26,2.27.11,2.05.86-2.82,1.06-.03,3.51,2.03,1.79,2.58-2.23,2.33-3.52-.03-.2-2.57-.75-.19-2.7.92.74,1.07,4.37,1.51,4.82,1.32,1.34,1.15-1.82,1.4-2.26.21-.38,1.54.38.41-1.95,3.92.79.34,2.24.12,3.4-.12.62.67,2.95,1.68,2.02,1.2-1.11-1.29-3.84,1.82-3.02.15-.13-2.18-2.04-.02-3.36.24-.15,4.62,1.09,5.67.99.41-.04.46-1.19.66-1.25,2.38-.73,1.14,1.3,1.49,2.64.13.5,2.09.3,1.18,1.57-.05.07-.95-.17-1.15.45-.3.93.09,2.44-.58,3.43-.21.31-2.53.78-3,2.06-.06.17-1.28,4.2.24,3.74-.31-3.81,5.39-4.84,6.33-6.04,1.59-2.04-1.66.13-1.2-1.49,2.35-2.97,1.79-.19,2.45.27.16.11,2.27-1.18,3.75-1.06,1.97.16,1.05,2.04,2.83,1.68l.59-1.2,1.81,3v-3.61c1.16-.03.55,1.89,2.11,1.81.65-.03-.19-2.55,1.21-1.81,1.27.67.06,3.12,2.72,2.4l-.3-3.6c1.17,1.47,0,2.92,2.71,1.8l-.31,1.81,2.12.89c-3.42,1.59-.34,1.31-.57,3.59-.03.22-2.91,1.11-1.26,3.55.4.59,1.44.1,1.21,1-1.51-.12-.73,1.49-2.11,1.23-.52-.1-.03-1.69-1.2-1.21-2.52,1.04,1.25,2.77,1.8,4.21l.89-1.8c1.21,5.07,1.85,1.16,2.09,1.21.63.12,2.19.97,2.73,1.5-2.38-.54-3.15,1.52-3.35,1.53-.56,0-1.57-.86-1.99-.59-1.07.73-1.9,5.3-.09,3.57.18-.17.1-1.53.86-1.65,1.42-.24,4.14.89,4.57,2.57-2.85-.38-6.32.63-7.16,3.74-.42,1.57,2.18,2.55,1.75,4.39l3-.6c.1.99-1.36.71-1.8,1.5-.21.38.85.21,1.21.73.91,1.27-2.31,5.93-1.21,8.01l3-1.2c.12.64.29,1.97.77,2.3,1.2.82,2.11-1.32,1.05,2.52,2.02.52.88-1.49,1.21-1.82.17-.17,5.21,1.01.61-2.11,3.49-2.82-.03-1.8-.03-3.57,0-2.43,2.65-2.47,2.95-3.76.21-.87-.63-2.05-.43-3.36.24-1.62,2.38-3.43,2.61-4.59.17-.89-.46-1.8-.31-2.68.03-.23,2.71-1.39.94-4.05-.57-.86-3.08-.38-2.73-2.38.59.08,1.81,1.83,2.4,1.21,1.19-1.27-1.7-2.1-1.2-2.4l1.81-2.41c1.01-.25.24,1,.98,1.18.09.02,1.67-.07,1.76-.1.57-.25-.12-1.32.87-1.07.54,2.45-2.12,2.59-3,4.21,2.52-.76,2.28,1,2.47,1.14,1.47,1.07,2.07-3.31,3.26-4.13,1.81,1.11-.45,1.58-.24,2.61.1.52,1.44,1.33,1.14,1.59-4.3-.29-1.49,6.24-6.63,4.23.45,1.54-.55,4.1,1.51,4.81,1.52.52.65-1.56.9-1.8,1.15-1.07,2.45,2.24,3.62,1.21.29-.26-.86-2.06-.6-2.4,2.26-.87,4.52,1.39,3.01-1.81,1.15-.24,2.52.53,3.01,1.5.26.52-2.24-.12-.6,1.21,5.76,2.07,2.56-.14,3.9-2.13.45-.67,1.9-.81,2.12-.59,1,1.02-1.44,5.8-1.21,6.02,1.92-.74,3.66,1.53,4.63,1.7,1.46.25,5.22-3.59,3.82,3.13,2.7-2.31,1.33-.38,2.38.31,2.44,1.58,2.33-1.39,3.34-.9,1.84.7.75,3.49.91,3.61.24.2,2.47-.34,3.01.91-.95.29-1.71,2.58-1.85,2.67-.21.14-1.54-.81-1.76-.56-1.08,1.26.81,2.41,2.41,1.81-1.62,2.3,1.71,1.03,1.8,1.2,1.25,2.47-.79,1.31-1.39,1.43-.52.1-.95.7-1.42.77-1.18.19-2.45-1.05-3.53.81l-1.5-1.21v3.62c1.28-.51,2.09-3.01,3.61-.9l-2.4,2.71c4-1.13,1.59,0,2.53,1.69.34.61,2.85.8,2.88,1.92l-1.66.3-.45.91c-1-2.14-2.3-3.46-4.23-4.81l-1.8,3c-.73-.75-5.04-3.67-5.73-3-.17.9.54,1.57.6,2.41-.32-.58-2.36-3.46-2.8-3.54-.27-.05-4.68,1.59-5.21,1.87-4.06,2.16,1.77,4.36,3.22,3.23.78-.6.03-2.28,1.15-2.17-.46,3.92,3.88,4.31,3.63.6.52.93.9,1.69,1.14,2.73-.6,1.56-3.21-.41-3.55,1.2s2.79.81,1.2,3.3c-1.52,0-3.01-4.9-3.3-4.81-.33.1-2.11,1.31-2.11,1.5.03.66,1.99.56,1.79,1.5l-3.61.31,1.8,1.49c-2.25,1.3-1.43-.75-2.71-.6-1.98.24-2.28,2.93-.31,3.32l-1.8,2.11c1.17.56,2.94-1.64,3.58-1.18.08.06.17,1.12,1,1.75.71.52,4.47.37,4.44,1.55,0,.11-1.54,1.68-1.78,1.5-.04-.03.12-.85-.17-1-.7-.36-1.55-.13-2.24-.53s-.14-1.74-2.12-1.53c-.73.08-3.73,2.87-2.41,3.07,2.14.32,1.05-1.69,2.4-1.21.54.19.13,1.15.68,1.26,1.09.22,2.32-1.17,3.24.26-2.08.93-3.4,1.21-3.01,3.92-2.12.5-.58-1.8-1.79-2.73-2.08-1.61-5.77-.17-7.25,1.83-.23,1.37.46.85,1.35.76,1.75-.18,4.04-1.76,5.27-.16l-1.81.6,1.81.6c-3.21,2.68-3.22,1.52-6.04.58-.65-.22-1.55.32-1.7.22-.39-.24-1.68-4.37-3.65-1.34-.16.24-1.86,4.56-1.88,4.82-.11,1.4,1.97,3.16,1.22,5.08,4.1-1.34,1.31.5,2.41,3.62l2.4-.91c-2.62,2.24-2.79,5.85-6.03,7.54-.1-.54.08-1.23,0-1.81-2.48-.81-2.36,1.07-3.03,1.46-1.13.65-4.48,1.49-4.19,3.06.39,2.18,2.83-.45,3.48-.73.93-.41,2.17-.5,3.15-.78l-.61-1.19c.37-.09.99.11,1.21,0,.32,1.72,1.34,1.13,1.21,1.5-.64,1.76-3.37,1.21-4.57,2.06-.64.45-2.74,4.3-4.18,5.48-3.22,2.65-5.36,1.94-8.09,3.36-.45.24-4.12,3.86-4.25,4.18-.52,1.22.84.86,1.49.9,3.56.26,10-1.16,12.36-3.92,5.52-6.45,3.97-7.85,12.67-11.44,2.53-1.05,4.18-4.99,4.81-7.55,1.01-.31.31,1.14.85,1.14.19,0,3-.72,3.35-.87.4-.19,6.31-5.15,6.84-5.69,2.25-2.34,2.45-5.79,3.49-8.59.19-.51,1.96-.86,1.16-2.87,2.48-.55,2.87,5.54.91,4.81-1.34-.49.59-2.29-1.51-1.8.78,1.29-1.43,6.38-1.21,6.63,1.14,1.24,1.17-2.25,2.39-1.2.11.1.34,1.77.92,1.79.89.03,3.28-8.31,4.09-9.72.27-.48,2.94-3.47,3.44-2.92l-1.21,3.31,1.81.6c-.96,1.37-2.07-.26-3.3.89-2.27,2.11.51,2.11.07,3.67-1.17,4.09-4.01,3.72-4.59,5.1-1.18,2.8,3.12-.82,3.31-.91.31-.14,1.36,4.21,4.52-1.51.05-.11-1.87-.83-1.79-1.81.15-1.9,2.89,1.02,3.6.3-.97-1.12.69-6.08,1.24-6.6.06-.06.9.5,1.35.37.94-.28,1.62-1.28,2.84-.99.24.85-2.31,1.14-1.8,1.79.04.05,1.19-.14,1.25.37.14,1.2-1.19,3.76-.04,5.68l1.8-.6-.59,1.81,1.21-.3c.35,1.35-.83.69-1.73,1.25-1.73,1.07-3.73,2.84-5.51,3.56-2.49,1-5.7-.16-4.82,3.32-1.18.1-.25-1.43-.73-2.28-.23-.4-2.53-1.36-3.2-1.4-2.98-.16-3.79,2.32-4.34,2.45-2.28.55-7.49-.69-6.7,3.2s7.73,3.28,10.75,3.46c.66.48-2.96,1.99-3.84,1.84-.41-.07-.31-1.2-.73-1.23s-1.13.54-1.66.42c-1.15-.26-2.07-1.29-3.41-1.02l.6,1.8c-3.36-1.49-5.97,1.68-9.04,2.71-.96.32-10.95,1.55-8.44,3.92.25.24,3.44-.78,3.01,2.41-.15.2-3.62-3.34-3.01.6-2.73-2.65-5.15.52-4.81,3.61,1.7.24,3.58-1.4,5.26-.76.26.1,4.25,3.21,4.42,3.44.68.94,1.19,4.9,3.2,4.52.74-.14,2.46-3.35,4-.58l-1.8,1.82c2.37.79,4.25,1.22,5.67-1.25.29-.51,2.4-5.15,2.16-5.37-3.17-.68-4.33,1.77-6.33,3.61-1.31-1.86,1.33-2.27,2.08-3.4s-.6-3.82,2.15-5.03l-.91,4.21c.5-.07,1.62.14,1.79,0,.7-.56.12-8.89,4.24-7.23l-1.21-2.39c2.89-.94,5.32-3.78,4.88,1.54-.11,1.42-1.74.27-1.26,2.07.71.14,2.69-.24,2.98.03s.76,5.65.64,6.6c1.83-1,.83-4.32,1.21-6.03,2.42-.43.15,1.45.84,2.43s5.16.8,2.59,2.82c-.44.34-2.25.44-2.22,1.07.03.51,1.59.76,1.73.97.13.19-.87,1.97-.54,2.34.27.31,2.18-.72,1.81.9-.18.81-.94-.49-1.68-.19-1.08.44-1.48,2.45-.74,3.51-2.38-1.13-1.55.19-1.96.45-.49.31-1.16-.33-1.67-.1-.7.32-3.21,3.09-4.21,2.06-1.46-1.5,2.24-1.68,1.21-3.62,1.33,0,3.09-.41,3.62-1.8l-6.03-.6c-.37,2.04,1.56.85,2.41,2.41-2.1-.02-4.07-2.15-5.87-.45s.78,2.11,1.69,3.15c.48.54.38,1.62.73,1.97,1.49,1.5,4.88,1.14,6.51-.17.73-.59-.38-1.46.27-1.49,1.98-.1,4.13.23,4.52,2.41-3.95-1.34-6.57,2.57-10.7.76-1.54-.67-1.77-2.27-2.94-3.09-5.28-3.71-7.26,2.31-7.77,2.32l-9.77-11.36c-.65-.17-6.57.88-6.8,1.14-1,1.07,2.03,1.71,2.67,2.44.56.63,1.01,1.49.93,2.38l-4.61-3.51-2.33-.75c-3.56,1.57-13.3,1.31-14.9,5.02-2.38,5.5,1.91,3.35,3.94,3.57.66.07,1.36.93,1.94.89,1.36-.07,3.26-3.18.9,2.01l2.4-1.21c-.34,1.64,1.1,3.14,2.28,1.66.27-.34,1.21-5.42,2.55-4.06.18.18-.93,1.35-.99,2.1-.1,1.45,2.15,1.65,1.59,2.11-.21.17-1.34.23-1.85.86-2.1,2.55,2.62,4.52,4.87,3.97l-1.81.6.61,1.8c-1.04,1.03-6.8-6.14-7.23-6.36-1.78-.9-2.51,2.49-4.03-2.73-2.29.03-9.56-1.28-10.76.64-.54.86-.06,2.44-.59,3.63-.93,2.15-7.47,6.5-7.84,10.24.69,8.62-3.87,24.43,2.71,31.08,7.36,7.44,24.32,6.14,34.02,5.77l5.19,1.14c-26.39,1.23-52.85.31-79.26,0l-5.73-1.2h8.74c.71,0,3.75-1.41,4.97-1.67,4.65-1,7.52-.12,11.01-4.66,3.82-4.99,5.76-19.81,4.79-25.88-.22-1.36-1.9-3.5-1.73-4.2.19-.78,1.93-.94,2.28-1.96.48-1.4.13-5.82-.18-7.47-1.59-8.53-8.65-3.9-14.8-6.6,1.35,2.22.02,4.28,0,6.62l-2.09-1.79c-1.28,2.43-6.89,6.8-6.87,1.48,0-1.66,7.12-1.69,7.7-3.7.35-1.21-1.12-2.4-1.18-3.58-.07-1.25,2.53-3.83.26-4.44-2.11-.56-3.88,2.77-5.63,3.33-2.1.66-3.57-.44-4.87-.08-1.42.38-2.87,2.18-5.24,2.61-.92.17-5.58,1.01-4.97-1.06,1.37.75,3.59.42,4.8-.35.49-.31.52-1.26.69-1.37.15-.1,1.43.67,2.48.42.85-.2,1.63-1.47,2.69-1.62s2.18.73,3.37.43c1.02-.26,3.83-3.67,6.31-4.04,3.02-.46,6.24,6.17,11.25,2.86,2.69-1.78-2.67-5.98-4.9-6.44-3.14-.64-7.79.25-11.02-1.03-1.35-.53-2-1.87-3.32-2.11-1.69-.31-8.6-.82-10.12-.48-2.87.66-3.56,5.23-5.43,6.92-1.49,1.35-5.55,2.1-7.06,4.11-.21.86,3.13,3.12,3.04,5.36,0,.17-2.35,1.17-1.84,2.75-1.97-.53.45-3.7.45-3.93,0-.53-1.45-1.76-2.24-1.49,1,2.24-3.02,4.55-4.62,4.69-1.34.11-3.95-1.98-5.32-2.03-1.27-.04-3.06,1.32-4.36,1.43-1.16.1-2.22-.68-3.35-.39-.45.11-3.55,3.11-3.72,3.52-.4.98,1,2-2.14,3.02l-.3-1.8-2.72,1.8c-.3-.27,2.19-2.71,3.01-2.42l-1.5-1.21-.9,1.21-.61-1.8c3.25,1.27,10.9-2.95,6.03-4.83l-.3,1.81c-1.14-3.5-3.72-2.22-3.9-2.41-.15-.17.09-1.66-.58-2.16-.94-.71-4.3-.03-5.29.75-2.45,1.92,2.38,1.24,3.43,3.21l-9.03,1.81c-.5-3.43,2.81-1.97,4.81-2.71-.94-1.81-3.07-.23-3.53-.4-.16-.06-.65-2.11-2.49-1.71l3.01-1.49c-.83-2-5.24.45-4.81-2.11.74-.34,8.66,2.41,6.62,0-1.44-1.69-8.33-1.47-6.93-3.63.44-.66,2.04.63,1.52-.89-.23-.66-1.42,0-1.21-.6.6-1.81,2.12.17,2.73.31.39.09-.03-1.63,1.18-1.21.86,1.9,4.55,2.92,5.15.79.37-1.32-1.7-3-1.21-5.01,1.68,1.83,2.42.5,3.85.55.43.02.26,2.31,1.56.96-1.6-2.77-2.69-4.08-6.03-2.73.98-2.12-.94-1.47-2.41-1.81,5.88-4.29,1.42-2.18,1.21-2.39-.3-.31.46-2.36-2.26-2.9-1.73-.35-.62.22-2.11-.52-1.17-.58-2.64.54-2.25-1.41.92-.09,2.1.31,2.89-.16.07-.04.31-2.24,1.32-1.04.24.28-.88,2.18-.6,2.4,2.12-1.24,3.47,2.37,4.04,2.43,3.69.38,1.51.59,3.06,1.18,5.2,2.01,7.29-2.34.75-.59,1.68-3.97-1.86-2.71-3.62-4.81,4.04-1.59,3.32,1.13,5.09,2.44,1.97,1.47,7,2.2,8.52,0,.46-.67-1.71-2.3,1.47-1.85-.45-1.33-.9-2.67-2.45-1.53-.33.24-.73,3.55-1.76,2.14-.16-.21.22-1.74-.27-2.45-.54-.78-4.13-.87-3.95-1.48l6.01.9c.09-.82.52-1.6.62-2.41,2.25.47.63,0,2.4-1.21-.9,2.8,3.57,3.07-.59,3.91.26,2.43,7.89,2.31,8.44,1.83,1.6-1.39-1.08-3.45-1.5-.92-.58-1.38-4.31-1.36-4.53-2.12-.48-1.62,2.73-.09,3.89-.28.8-.13,2-1.38,2.14-1.22.1.12-.15,1.1.19,1.61,1.88,2.76,3.92,3.59,5.82,5.35,1.75,1.62,4.47,5.64,7.09,6.2,1.53.32,5.7-2.09,7.99-1.1.03-2.71-2.59-1.07-4.52-1.5-1.5-.35-4.85-2.19-6.32-3.01,2.38-.57,6.37-1.67,5.42,2.11l1.82-1.81c3.72,5.03,3.98-1.62,0-1.82.36-1.73,1.62-.32,2.4-.89-.55-1.52-2.7-2.83-3.18-4.1-.57-1.49,1.54-3.04-2.52-2.21-1.49.31-3.63.91-5.33,1.31-.64.15-1.35,1.28-1.62,1.07-.1-.07-.03-1.33-1.35-1.97-2.02-1-3.17.23-4.32.03-1.53-.27-3.53-3.89-.66-2.89.51.17-.08,1.49.89,1.22.86-4.13-3.99-4.15-3.61-7.83,1.55-.47,1.47,1.49,1.91,1.73.59.32,2.92-1.17,4.11,1.59.57,1.13-2.31.79-1.2,2.1.09.1,2.45,0,2.64-.03.45-.05.33-1.06.75-1.17,2.14-.61,1.98.95,2.19,1.07.48.25,1.24-.47,1.69-.18s.44,1.42.59,1.51c.73.53,3.48-2.16,3.61-3.29.19-1.69-1.38-.51-1.76-.94-.39-.46.48-3.19-1.02-3.52-.5-.11-1.35.7-1.95.45-.08-.03-.11-.9-.86-1.29-4.42-2.33-11.02-3.12-15.56-.77-2.15,1.11-3.63,3.28-5.38,4.87l1.2.29c.44.8-2.85,6.59.6,4.82-.07.99.12,2.04,0,3.01-1.8-.38-2.96-1.34-4.18-1.55-1.49-.26-3.28,1.06-4.25-1.15-.15-.35,6.55-1.36,1.81-5.12l-1.21,1.21c-.7-1.91,1.13-1.66,1.21-2.11.26-1.47-1.03-.71-1.2-.91-1.31-1.51,2.95-.93,2.39-3-1.28.76-4.06,1.05-4.8-.59,1.83-1.23,3.45-1.28,5.42-2.42.2.66.77,3.02,1.51,3,.68-.02.5-2.45,2.11-1.79l-.59,3.01c5.29-1.14.56-2.91-.96-5.44-1.59-.43-1.22.73-2.05,1.22-.17-.55.31-1.57-.13-2.26-1.98-3.14-15.01-4.94-15.54-5.58-.06-.07-.06-1.73,0-1.8.11-.11,2.12.36,2.4-1.51-.31-.74-2.01-.03-2.41-.31-.12-.08,1.23-1.76-1.2-1.81v-.59c2.62.54,2.1-1.79,1.81-3.63,2.78,3.53.66.59,3.61,0l.61,1.8-1.82,1.21c3.45-.44,2.78,3.69,5.42,4.23l-1.8-4.81,1.8.59c.15-2.87-1.56-2.86-3-.6-.1-.84.2-1.84,0-2.63-.17-.71-1.48,0-1.22-.98,1.49-.26,3.71.36,5.03,0,.45-.12.45-2.25,1.6-1.21.17.15-1.33,3.4.31,4.21,1.5.27.34-2.47.9-3.01.04-.04,1.28-.22,1.19.3l-.59,1.51h1.82c.34,1.08-.89,1.42-1.05,2.19-.18.92.79,2.65.45,3.84,1.59-.22.99-2.77,1.21-3.01,1.55-1.8.96,3.97,1.21,4.22.7.69,2.76-.08,2.99-1.52.26-1.68-1.44-.53-1.79-.89-.2-.2,1.39-3.38-.31-5.41-1.31-1.56-3.22-.45-3.29-.61-.19-.41.28-1.55-.14-2.28-.24-.43-3.21-2.15-4.09-1.96l1.8-.89c-1.14-2.12-.81-3.68-3-5.13.96-.09,2.53.77,3.06,1.48,1.17,1.57-.45,2.73,2.37,1.54-.34.96-1.44,1.24-1.12,2.56.36,1.46,4.08,5.44,4.14,2.55.04-1.95-.92-1.25-1.17-1.95-.5-1.37-.53-1.89-1.25-3.48-.09-.2,2.73-.41,0-3.3,3.9-.15,1.01,6.36,4.06,4.59.82-.47.09-1.43,3.17-.39-1.05-1.59-3.21-1.25-3.62-3.61,2.66-.86,7.54,2.36,5.13,4.84-1.12,1.14-3.29-1.02-3.87.98-.29,1.01.63,2.88-.66,4.42,1.75.75,3.05.32,4.81,0,.33-1.14-1.32-1.76-1.16-2.64.12-.73,1.93-1.51,2.26-2.62.47-1.56-.66-4.25-.49-4.39.14-.12,1.03.19,1.32-.03.21-.16,1.48-2.6,1.69-.86.1.76-.54,2.54.89,2.1.8-.25.31-2.47,1.5-2.41l1.22,2.4-1.81.9,2.11,2.11-.31-2.4c1.77.26,2.07-.02,1.82-1.81,1.39,1.19.73,1.28,2.4,1.81-.45.78,1.05,1.72-1.81.61.4,1.21,2.1,1.61,1.81,3-2.83-.49-2.94,2.97-2.3,5.01.1.32,3.14,2.72,3.65,3,.64.37,2.18.34,2.26.42.43.46-1.53,3.36.31,4.21l.59-1.8,1.52,2.4.59-1.2c1.55-.45,1.03.62,1.42.96,1.3,1.11,4.48,4.3,5.12,1.06.19-.98-1.21-2.08-1.56-3.08-.4-1.12.23-2.32-.74-3.48-1.28-1.5-5.18-2.15-6.63-.3l-1.21-4.82c1.24.29.18,1.76,1.94,2.58.94.44,3.28.7,4.52.92,1.83.32.45-2.81-.72-3.56s-1.91-.1-3.08-.5c-1.75-.61-1.33-1.7-1.46-1.85.66.14,1.21.33,1.8.6.91-3.69-1.8-1.24-1.8-3.62,4.75-.46.62,6.86,4.81,1.81-.9,2.73.96,2.81,1.39,3.76,1.6,3.57,1.79,3.26,3.59,6.04s.81,6.71,4.38,8.27c.86.04,1.07-5.38,2.71-4.2.24.17-.78,4.07,3.62,3.62-2.62,1.92.08,3.7,1.22,2.76.73-.59.76-3.07,2.38-3.37.37,1.16-1.26,1.58-1.12,2.62.05.42.84,1.09,1.13,1.6-2.03-.6-3.91.47-6.03.3,1.03,1.86,6.6,4.85,7.18,1.73.12-.67-.81-1.42-1.15-2.03,3.96,1.18.73,5.02,5.63,3.52,1.69-.52.31-1.99.51-3.09.16-.86,1.12-1.69,1.14-2.51,0-.38-2.4-1.19-3.02-1.88s-.64-1.92-1.24-2.38c-.77-.58-2.34-.12-3-1.21.41-.89,2.11.65,2.4.31,1.02-1.24-4.16-6.19-6.02-4.83-.17-1.22,1.38-.03,1.83-.99.5-1.07.26-3.24-.03-4.43,2.43,2.03.19,6.33,4.21,7.23l1.82-2.4c-2.1,3.21-.6,4.77,1.21,7.53,1.11.41,3.09,4.29,3.91,3.91,1.89-.87.28-5.08.28-6.9,0-2.89,1.26-7.64-.3-9.95-.64-.94-2.8-1.34-3.85-2.18-2.98-2.33-3.42-5.03-8.02-4.35-1.11.17-4.27,2.01-4.67,1.67-.24-.2,1.21-1.75-.3-2.39-.72.57-1.45,1.11-2.41,1.14-1.71.06-2.59-2.55-3.32-1.76-.28.31,1.12,2.75,1.33,2.87,1,.59,3.3-.61,3.49.73-1.09-.29-2.21,1.02-2.83,1.1-.73.1-1.21-.79-1.85-.93-.69-.15-1.55.38-1.97.13-.51-.3-1.08-2.13-2.38-2.39l1.8-2.12,1.21,2.41c.32-1.08,0-2.66.31-3.62.93-2.91,3.48-1.66,2.11,1.21,1.6.29,2.38-.76,3.32-1.8l.3,1.81c2.45-.19,3.21-1.03.91-2.48-1.18-.74-2.06.2-2.73-.19-1.44-.86-1.93-8.84-6.62-.03l2.4.89c-1.23.06-2.46.07-3.68-.25-.72-.19-2.76-2.04-2.28-2.71.06-.08,2.11,0,1.14-1.24-.15-.19-2.11-.31-2.62-.59-.76-.43.13-1.95-1.59-2.15-.89-.1-1.83,1.48-2.42.93-.81-.76,2.06-3.76,3.61-1.21.21-2.44.31-3.51,3.02-3.02-2.2-2.52-3.83-.35-5.58.98-.2.15-.93-.26-1.35.19-1.21,1.28.6,2.8-1.49,2.45-1.58-2.29,2.79-3.47,1.8-5.42-.17-.32-6.18.24-7.22.59,3-1.86,1.04-2.22,1.35-3.84.42-2.27,1.93-.79,2.7-.62.45.1,1.07-.33,1.29-.17.26.19-.17,1.17.39,1.03.79-.2.11-3.31,1.51-1.81.18.19-.17,1.64,0,1.81,1.64,1.54,1.83-2.12,3.01-2.41.1.98-.08,2.03,0,3.01l1.8-2.11c2.42-.23.37,3.65.61,3.92.84.95,2.46-2.79,3.55-2.46.94-2.33-4.84-2.63-5.96-2.35-.18-1.7.24-2.71-1.21-4.21.13-.1,4.47,1.29,2.41-.6-.13-.12-2.33.2-2.72-1.81-1.99-.3.07,2.05-.3,2.4-1.1,1.06-1.81-2.92-3.61-1.8-.67,1.91,3.42,2.2,3.62,2.41.26.29-.66,1.56-.65,2.08,0,.16,2.94,1.22.33,2.13-.41.14-.31-1.02-.93-1.44-.46-.31-3.17-2.07-3.36-2.11-.93-.16-4.41,3.39-3.83-.66,1.78,1.68,2.91,1.15,1.79-1.21h1.82l-1.81-3.62h3.61l-1.79-1.51c1.12-.97,2.16-2.13,3.26-3.09.3-.25,1.13-.09,1.4-.38.32-.36-.02-2.44,2.31-2.07.22.03,2.94,3.18,2.66,3.43-.97-.69-5.15.31-4.14,1.75.1.16,1.74.1,1.13,1.87,2.56.58.17-2.58.6-3l3.01,1.8c-.94-2.06.5-2.56,1.81-3.91-1.29-.55-1.41-.53-1.2-2.11.99-.26.3,1.06.97,1.21,3.02.73,1.28-1.02,2.03-1.53,3.64.8,1.77-.24,2.57-1.31.34-.45,1.45-.54,1.62-1.14.46-1.76-2.92-2.95-2.96-3.57-.12-1.74,2.26.31,2.69.32.28,0,.52-1.63,1.51-1.24-.93-.55-2.42-4.24-1.81-4.8.12-.11,1.38.15,1.95-.14,1.06-.53,1.9-2.04,3.17-1.67,1.76.5.24,2.87.31,3.62-.2,0-.4-.39-.6-.39-2.61,0,.45,4,1.07,5.04.25.42.02,1.27.13,1.38-.45-.2-2.29-.73-2.41-.6v2.41c2.59-1.04,3.12,1.28,3.31,1.21,1.71-.63-.18-2.69-.9-3.01.1.1,1.97.55,1.81-.9-.2-1.76-2.13-2.43-2.41-5.13l-.08-.03v-.09ZM264.7,62.43c.8-1.05,1.13-1.71-.37-2.23-1.56,2.53-1.35,4.5-1.82,7.22,3.9-.6,1.06-4.55,1.21-4.8.03-.04.73.11.97-.19h.01ZM242.63,63.21c-3.04-.09-1.66,3.11-4.21.59-.22,1.97.11,3.37,2.4,3.01-.45-1.77,1.47-2.01,1.81-3.61h0ZM257.09,67.43c-.24-.11-.94.24-1.64-.17-1.09-.62-2.35-4.1-3.49-4.04-.86.04-1.22,2.65-.88,2.99.17.17,1.51-.19,1.73.04.36.38-.32,2.47.35,3.6.79,1.32,1.35-.59,1.82-.57.27,0,1.69,3.09,4.18,3.01.5-.02-.04-1.9,1.54-1.24.77,1.74-2.16,2.04-1.16,3.56.2.31,5.65,2.6,6.29,3.65,2.31-2.33-3.66-2.69-4.56-4.03-.94-1.41.79-2.08.65-2.87-.17-1-4.34-.92-4.83-3.93,1.55.71,1.94,1.76,3.62,1.81v-3.01h-3.62c.03.39-.06.83,0,1.21h0ZM234.19,67.43l-2.4-3.62c-1.69,3.11-1.55,3.83,2.4,3.62ZM266.13,66.23l-2.9,3.44c-.38.75.14,1.71.8,1.97,2.5.99,2.15-4.08,2.1-5.42h0ZM278.79,66.82c-2.6-.42-.14,3.16-.28,4.52-.08.75-1.44,2.01-.92,3.32l3-2.4,1.83,2.7c-1.87-.27-2.93,1.29-4.83.31l1.21,3.01c1.82-.51,3.74-2.88,5.62-2.35,2.44.69-.17,1.34-.22,1.53-1.05,3.77,4.05,4.82.61.23l1.82-.31c.06-1.56-1.83-4.29-1.85-5.41,0-.23,3.95-2.8-.57-1.52v-1.81l1.2.61c.71-3.21-4.61-2.7-6.32-.61l-.3-1.81h0ZM235.31,72.33c-.24-.26-1.58-.03-2.05-.64-.24-.31.71-1.87-.59-2.45-1.17-.53-1.55,2.56-1.24,3.03.33.49,1.47.49,1.55.59.38.46-3.77,3.16,1.53,4.79,1.49.46.99-5.12.79-5.33h.01ZM242.62,75.87c.89-2.09-.21-4.04-.89-6.03-1.35,1.58-1.12,5.13.89,6.03ZM226.96,70.45c-.34-.35-1.43-.26-1.22.91.24,1.32,1.55,1.69,1.74,2.52.17.73-.54,1.61-.4,1.9.19.41,3.72,3.2,4.71,2.5l-3.01-5.74c3.27-1.91.23-.92.1-1.02-.39-.33.53-2.24-1.6.13-.62.06-.13-1.03-.3-1.2h-.02ZM287.84,74.06c5.49-.57,1.94-5.87.31-2.39-.37.79-.38,1.56-.31,2.39ZM258.3,72.86c-2.18.37-2.21,2.59-4.81,1.21-.37,2.36.32,1.84,2.41,1.82-1.1.8-1.06,4.05-1.21,4.22-.21.24-1.14-.66-1.83-.33-.53.26-.06,2.15-.89,2.12-.31,0-1.02-1.62-2.11-1.19-.47,4.52-2.81,6.82,3.62,6.62-1.85-2.73,1.5-1.65,1.82-2.71.92-3.07-2.21.55-1.82-2.11,1.97-.93,3.32.91,5.42.6-2,1.14-1.48,4.08-1.89,4.73-.52.81-3.67-.45-3.39,3.24.38,5.01,6.49,6.23,6.48,4.39l-1.19-2.11c3.47,1.55,5.59,5.3,6.02-1.21l-1.21.31c-.46-1.22,1.04-.66,1.21-1.3.24-.89-.1-2.07.26-3.26.51-1.63,2.55-2.04,2.18-4.45-.17-1.14-1.13-1.44-1.5-2.19s-.16-1.85-.46-2.23c-.11-.15-3.07-1.77-3.26-1.81-.62-.11-1.79.69-2.02.47-.19-.17-1.65-4.11-1.83-4.83h-.02.02ZM239.42,74.87c-.62-.52-1.37-.91-2.21-.8.78,1.9-1.6,3.77-1.74,4.63-.21,1.27,3,3.82,3.53,1.65.37-1.52-2.33-3.51,1.82-2.66.29-.51-.97-2.45-1.4-2.81h0ZM247.44,83.71c1.05-1.15-.22-4.02-.4-5.21-.25-1.68,1.07-2.78-1.7-4.43-4.49,3.54.24,5.1,1.23,7.23.16.33-.73,4.15.87,2.4h0ZM269.14,80.69c.96-.93.79-5.96-1.19-6.63.57,1.88-.18,4.01-.03,5.71.08.86.38,1.73,1.21.92h.01ZM291.95,78.77c.47-.76-.83-4.11-1.4-4.1-2.59,2.13-1.6,4.35-2.11,7.22,1.74.53,1.96-2.07,2.19-2.4.31-.45,1.17-.49,1.32-.73h0ZM230.57,81.9c-3.33-1.75-2.59,3.45-1.49,5.42l1.49-5.42c.98.52.97,1.52,1.55,2.38.26.39,1.18.49,1.35.77.22.34-.72,1.98.71,2.58l-2.4.59c.75,1.02,5.21,4.25,6.02,3.32,1.24-1.42-1.41-4.43-3.61-2.41.13-3.82,6.67,1.33,3.92-4.24-.39-.79-1.66-.89-1.96-1.35-.36-.56-.14-1.65-.72-2.59-.87-1.41-3.23-2.32-4.87-2.08v3.01h0v.02ZM215.62,80.52c-.17-.1-.11-.73-.12-1.02-1.88.14-.28,5.21.6,5.73,1.06.62,6.11.53,6.03-.61-2.09-.63-1.45-2-1.84-2.66-.09-.14-1.58.04-3.13-.68-.27-.13-1.44-.7-1.53-.75h-.01ZM225.74,80.69c-7.07,2.04-2.33,2.69,1.21,4.22l-1.21-4.22ZM273.23,83.26c-2.32-3.04-2.95,4.32-3.64,5.1-.87.99-2.92-.03-2.24,2.58,2.45.42,2.71-1.21,3.98-2.31,1.14-.98,2.69-.31,2.62-2.73-.02-.49-.46-2.3-.72-2.64h0ZM290.79,85.42c-1.04.82-2.55-2.21-3.24-2.21-.31,0-3.72,2.71-3.92,3.21l1.2.89c-2.74-.13-7.63,4.73-2.41,3.63-3.21,2.1-1.8,3.35-2.41,6.62l3.61.6c-8.31-.94-9.7,6.73-13,12.03-.64,1.02-2.28,1.85-2.58,2.88-.62,2.18,1.21,5.27,1.72,7.4l1.21-3.61c2.13.64.3,2.52.54,3.82.12.62,1.63.62,1.82,1.35.2.8-1.68,3.31-.53,6.57,1.69,4.8,5.91-1.23,5.91-2.39,0-.18-1.97-2.46-2.32-2.87-.91-1.02-2.18.1.31-2.25.24,2.56,2.03,4.75,4.73,4.77,1.61-.47,2.62-6.32,3.86-7.17.13-.09,2.46-1.19,1.95.28-.2.4-4.79,5.91-2.11,5.13,2.17-.63,5.34-2.76,2.73-4.8,1.55-.18,1.82,1.64,3.35,1.83.24.03,4.48-.13,4.72-.18.47-.1,3.34-2.92,3.39-3.16.41-1.83-2.8-1.34-3.01-1.5-.17-.14.52-4.25.59-4.47.57-1.69,2.22-1.97,1.22-3.96l3,1.8-1.8-4.22c1.13-.06,2.52,3.09,2.7,3.01.98-.42,1.13-2.3.84-3.23-.45-1.42-4.69.18-1.14-1.89-3.34-2.73-9.08-5.3-7.58-10.58.45-1.57,3.35-1.18,2.15-2.38-.49-.5-5.31-1.49-6.02,0-.23-.26,3.22-8.6.6-6.02-.1.1.13.94-.08,1.1l.03-.02h-.03ZM277.9,83.71c-1.32.55-2.26,3.25-.6,3.61,1.42.31,3.28-3.59.6-3.61ZM239.61,84.31c.78,1.81-2.13,8.49.88,8.46,4.57-.06,6.08-8.87-.88-8.46ZM226.96,86.13l-3.28-.59-6.36,2.08c.63,1.45,2.33.21,2.4.31.29.4-.77,1.89-.58,2.66.04.17,3.12,1.55,3.29,1.55,1.42-.03-.57-5.35,2.11-4.81.59,2.45-.93,6.25,2.41,6.63-1.53-2.7-1.53-5.12,0-7.83h.01ZM328.05,86.9c-.17-.17-1.57-.86-1.62-.78-.98,1.94.52,4.12.55,5.1.11,3.91-3.99,4.98,4.27,5.75.31-1.24-1.15-2.08-1.18-2.22-.52-2.25-.02-5.7-2.01-7.84h0ZM248.05,92.76c5.28.63,1.68-4.63-.91-6.02-1.25.04-1.04,5.22-1.63,5.89-.38.42-1.84.1-2.28,1.03l2.73-.3c1.89,1.93-5.66.99-4.52,3.29,1.02,2.09,4.06.13,4.21.31.12.14-.14,1.69.56,2.16,1.04.71,3.42-.62,3.07,1.46l3-2.4c-.91,1.25.58,5.42,1.57,5.42.55,0,1.8-.85,2.04-.6.09.09-.2,1.07.18,1.6.27.37.96.48,1.23.89.52.76,2.52,5.63,4.01,4.15,1.85-1.84-3.18-6.35-4.12-7.63-1.25-1.69-4.38-6.96-5.85-8-1.11-.78-3.04-.09-3.28-1.24h-.01ZM228.16,91.54c1.15-1.23-.03-4.88-1.21-3.61-.24.26-.52,6.3,2.63,5.43.69-.18-.02-1.48.98-1.21.38,1.64-1.56,4.25,1.21,4.21-.99-3.07,1.18-5.59-3.62-4.82h0ZM269.76,97.58c1.66-.52,3.76.73,5.11.6,3.57-.32,3-7.1,1.21-9.04l-4.68,3.02c-.7,1.64-.67.97-2.24.59-1.26,3.7-.98,6.79-.9,10.57.03,1.3.66,2.17,2,1.38.26-.16,3.29-5.06,3.11-5.3l-3.62-1.81h.02,0ZM308.95,97.57l4.22-1.52c-2.14-5.6-4.72-3.62-4.22,1.52ZM237.74,94.02c-.2-.24-4.48-.91-4.75-.66-.25,3.89,4.28,1.81,3.62,4.82,1.41-.12,1.55-3.67,1.14-4.16h0ZM319.78,98.17c-1.36-.31-.98.21-1.4.78-.69.95-2.27,6.18-.62,6.51,5.22.18,3.15-4.03,2.02-7.29ZM325.12,101.12c.44-.66-.54-1.73-.8-1.72-.68.02-4.01,3.1.17,4.07,1.78.41,2.64.07,3.76-1.37-.92-1.17-4.06.45-4.21.31-1.15-1.12,1.06-1.21,1.1-1.28h-.02ZM236.6,102.38c.4-.52-3.71-3.15-4.82-2.4-.74,3.53,2.3,3.25,4.82,2.4ZM266.13,108.42c.58-.66-1.3-3.17-1.21-4.47.17-2.36,3.56-5.15-2.95-3.3-.69,1.02,3.02,9.07,4.17,7.78h-.01ZM334.86,101.2c-.31-.34-5.21,1.85-5.86,2.25-1.97,1.21-.03,1.7,1.41,1.87,3.22.38,4.98-.53,4.46-4.12h-.01ZM313.77,103.6l-.6-1.81c.76,2.83-4.22,1.6-2.72,4.82l1.51-1.82c3.41,2.03-1.42,2.31-2.02,3.76-.84,2.01.42,3.9-.39,5.89,2.48.61,1.67-1.24,2.72-2.41.61-.68,1.63-1,1.92-1.39.5-.66,2.75-4.39,2.59-4.63-.06-.1-1.37-.16-1.8-.93-.48-.86,2.38-1.43,1.2-2.7-.6-.65-2.2,1.48-2.4,1.21h-.01ZM246.24,104.81c-.17-.23-1.97-.87-2.32.37-.31,1.07-.37,3.91.83,4.44,1.88.83,2.15-1.47.3-1.49.88-.48,1.69-2.63,1.2-3.31h0ZM255.29,104.81c-.4-.44-5.08-.9-5.42-.61-.33,3.49,7.01,2.34,5.42.61ZM249.15,106.15c-2.5-1.56-1.69,3.1-2.3,4.67,1.9.38,1.9-.56,2.71-1.8l5.13,3c-1.7-.32-3.58.35-5.14.31-.59,0-1.12-1.28-2.11-.66-2.26,1.42-1.9,7.79-1,10.11.43,1.12,7.46,9.3,8.05,9.48.96.28,1.88-.47,2.82-.37.74.08,1.51,1.62,3,.46,1.07-.84.25-3.32,1.6-3.66,1.29,5.69-5.31,4.57-4.8,9.29.26,2.48,4.83,8.53,6.62,10.6-1.55-3.31,3.84-7.56,4.09-8.81.08-.41-.4-7.3-.52-8.31-.14-1.16-1.49-7.61-2.04-7.59-.78,1.1-1.28,2.07-2.71,2.4l.3-2.41c-1.3,1.19-3.46,1.05-5.13,1.8l1.82-2.7-1.82-1.51,2.4-.61c-.64,2.94,2,1.57,4.23,1.81.44-.44-1.12-7-3.01-6.64-.07-1.13,1.8.07,1.11-2-.14-.41-6.17-5.37-6.56-5.55-1.12-.5-4.65.34-5.74.13-.71-.13-.69-1.3-.97-1.48h-.02v.04ZM304.41,108.44c-.95,1.47-7.62,4.21-4.55,6.35,3.25,2.27,7.24-3.3,4.55-6.35ZM320.93,110.9c-.1-.17-3.13-1.36-3.74-1.21-1.39.36-3.94,5.94-6.22,7.08-2.41,1.21-5.93,0-7.51,2.16-1.15,1.57.71,5.5.66,7.56,2.45-.59,4.54-2.23,7.22-1.82.17-1.14-1.47.03-1.17-1.46.36-1.83,5.07-3.5,4.19-6.98.99-.26.42.85.7,1.05,2.45,1.75,1.62-2.37,1.88-2.73,1-1.39,5.25-1.66,3.98-3.68v.02h0ZM200.25,114.64c-1.31-1.12-4.47.17-5.24,1.03-1.38,1.56,2.17.79,1.8,1.79-3.65,1.07-3.67,1.92-1.7,5.03.29.45,2.89,3.7,3.09,3.83.37.25,7.81,2.25,8.55,2.34.47.06,1-.42,1.52-.36.24-1.09-1.01-.38-1.21-.6-.58-.69,3.46-1.34,3.61-1.2,1.18,1.06-3.74,1.95-.3,3.62.41-1.98,1.29-.35,2.11-.86,1.32-.81.67-3.86-1-4.48-1.84-.68-1.32,1.05-1.42,1.11-.37.24-1.57-1.96-3.29-1.84-2.01.14-.81,1.76-.92,1.84-1.28.87-1.16-1.16-1.59-1.24-1.45-.26-4.38,1.28-6.25.64-.66-2.31,3.03-.69,3.61-1.21l-1.21-2.4c.53-.45,4.07,2.98,5.42,1.2.16-.21-1.77-4.37-2.11-4.81-.67-.89-1.69-1.14-2.42-1.83-.52-.48-.7-1.29-1.07-1.61h.02ZM190.79,121.08l-1.21-3c.33,1.6-.43,3.27,1.5,3.62,2.87.52,2.11-.56,2.11-3.01-2.04-.63-.94,2.24-2.4,2.4h0ZM316.67,121.57c.05-.08-.51-1.52-.79-1.69-.31,1.9-4.22,2.2-3.91,3.9.19,1.07,2.11.66,2.57.31.66-.5.43-1.24.8-1.74.41-.54,1.21-.62,1.34-.79h0ZM299.59,121.1c-.5,0-6.71,6.21-6.84,7.06-.55,3.56,6.47,5.41,5.08,9.84-.43,1.37-6.52,7.64-1.85,8.45s2.54-5.07,2.8-6.84c.24-1.6,2.75-3.4,2.9-4.97.14-1.41-1.03-2.82-1.15-4.24s.47-9.31-.95-9.29h.01ZM195.61,126.5c1.14-1.1-3.96-5.61-5.14-3.62-.31.53.6,2.14.32,3.01l2.4-1.21c-.31,2.28.36,1.9,2.41,1.81h0ZM291.46,123.5c-.74-.72-4.11,2.79-4.87,3.27-2.73,1.71-5.8,2.95-8.44,5.44-.61.58-3.81,4.09-3.93,4.54-.6,2.12.93,4.19,2.47,5.42,1.74-2.16,6.73-5.33,3.92-7.82,1.66-.52,2.24,1.48,2.85,1.83,1.35.78,2.95-.99,2.57,1.18-.87.38-3.3-.81-3.58-.59-.19.15-1.27,3.6-2.44,4.21l2.41.6c-2.08-.56-3.26,1.21-4.66,1.67-1.33.44-2.87-.26-4.13.68-1.35,1-.77,2.96-1.22,3.69-.24.39-1.18.58-1.44,1.05-.99,1.76-3.07,7.11-2.96,8.93.09,1.62,2.75,2.66,2.91,3.66.1.67-1.02,1.45-1.13,2.35-.17,1.4.17,2.87-.03,4.19-.58,3.92-2.04,7.76-1.8,11.77.82.02,1.17.2,1.83-.4.43-.39,6.35-9.1,6.47-9.67.35-1.58,1.28-7.93,1.35-9.55.14-2.82-1.4-4.11,1.18-6.89-.83-.43-2.91.73-3,.6s.12-1.17-.32-1.78c-.48-.68-1.66-.3-1.49-1.23,2.73.59,2.52-1.99,5.42-1.82.79,1.55-2.81,1.69-1.8,3,.06.09,1.91.59,2.04.57,1.1-.24.86-2.28.97-2.38.07-.07,1.21.7,1.98.53,1.12-.25,5.23-5.64,5.86-7.15l.59,1.81h1.81c-1.36-2.59,2.95-7.43,2.85-8.75-.15-1.88-8.01-7.81-2.24-12.95h0ZM190.78,126.52c-.78-.94-4.7-1.52-6.02-1.21-.3,2.07.64.77,1.12.93.67.23,6.8,2.59,4.9.28h0ZM222.03,126.64c-1.68-.98-1.75,1.08-2.04,1.09-.78.03-2.17-1-3.28-.62,1.49,1.41,3.55,7.39,5.81,7.77.23.03,4.24-1.33,4.45-1.43,1.03-.52.31-.71-.02-1.21-1.36-2.07-3.59-3.52-4.93-5.6h0ZM252.87,143.38c1.28-1.31-6.21-14.77-8.96-15.36-2.92-.63-5.87,2.47-1.28,2.71-3.33,3.21,3.76,5.8,5.67,7.89.78.84,2.92,6.45,4.58,4.76h0ZM208.26,131.93c.29-2.75-7-3.68-7.83-3-.17,1.22-.1.99.75,1.35,1.93.82,4.97.86,7.08,1.65ZM193.19,130.13c-.22-.24-5.03.37-3.62,2.4.84,1.2,4.96-.97,3.62-2.4ZM217.72,133.93c-1.24-1.01-5.56-.71-4.63,1.32.58,1.24,2.53.64,2.94,1s-.65,2.45,1.57,1.72c1.28-.42,1.44-2.96.11-4.05h0ZM240.88,139.11c-.3-.24-.24-4.7-3.36-5.08-1.72.67-12.27.08-12.97.93-1.55,1.9,3.14,2.69,4.59,2.94,4.29.73,4.85,1.21,8.54,2.31,2.75.8,5.77.75,8.57,1.37.24-3.07-4.85-2.04-5.36-2.46h0ZM307.09,145.16c.16-.14,1.19-3.81.99-4.18l-5.16-4.22c-1.04,2.16-.66,7.41,1.75,8.17.56.17,2.12.5,2.43.23h0ZM233.46,141.1c-1.28-.75-4,.56-5.58.51s-2.87-1.13-4.17-1.07c-1.58.06-1.45,1.67-3.11,2.23-2.09.71-2.67,0-4.5-.59-.39,1.21.86,1.99,1.01,2.81.14.75-.6,1.52-.14,2.59.11.26,3.41,4.14,3.63,4.31.81.56,4.62,1.38,5.44.55,2.18-2.21-1.45-4.84,2.7-4.83-1.42,2.53-.03,2.08,1.21,3.61l-3,.91c1.12,1.28,2.83.78,4.18,1.83,2.98,2.33,3.88,9.75,9.09,9.06,1.18-.16,5.79-2.66,4.8-3.96-1.85-1.36-3.74.51-4.83.27-1.53-.32-3.21-3.57-3.61-5.09l3.32,3,.31-2.41,1.21-.59c1.09.68,1.09,3,2.72,3.61s.22-2.02,1.49-1.8c0,.73.12,1.53.59,2.13,3.42,4.52,8.61,8.36,10.82,13.3.23.51.34,1.96,1.26.85.43-.52.75-6.98.57-8.11-.13-.82-1.88-4.88-2.35-5.48-1.55-1.93-5.63-.98-8.13-5.13-1.35-2.22-1.03-6.34-2.11-7.53-1.96-2.13-8.7-1.54-11.04-2.08-.79-.18-1.23-2.59-1.75-2.9h-.03ZM255.29,149.42c-7.03-3.64-5.46,2.88,0,3.6-2.44-2.73-.26-1.52,0-3.6ZM197.41,154.84c-1.36-.74-3.87-1.34-5.25-.41-.3.2-.1.94-.17,1.01-.23.23-2.84-.46,0,2.11l-1.2.3,1.2,1.21c-2.37,3.14-3.2-1.49-2.42-3.63-2.59.98-5.03,1.43-6.58,4,.37,2.92,4.17,2.13,5.25,2.77.38.23.52,1.53,1.04,1.67,1.39.38,2.09-1.76-.31-1.83.95-2.15,1.21-.45,2.48.24,1.11.61,2.34,1.2,3.55,1.58l-3.61-.61c.36,3.29,4.15,1.82,5.64,1.98,1.41.16,2.47,1.6,4.89,1.69,7.69.28,8.76-8.38,4.27-7.91-1.49.16-4.22,2.49-6.58,1.25-.84-.44-.27-1.21-.4-1.84,1.2.51,2.41,1.62,3.83,1.14.49-.17,2.48-2.36,2.22-3.22-.1-.33-5.09-3.89-5.79-3.96-2.5-.24-1.71,1.32-2.07,2.42v.03h0ZM284.9,160.97c.31-.3,1.64-.07,2.35-.38,1.54-.68,8.03-3.85,8.35-4.96.91-3.12-3.14-3.79-5.56-2.52-1.97,1.04-6.11,6.46-6.4,8.67-.16,1.19.22.94,1.2.89.03-.46-.18-1.46.07-1.7h-.01ZM219.72,153.03c-.17,1.37.06,3.02,1.59,3.43.29.08,5.28.47,5.73.45.79-.05,2.69-.41,2.92-1.17,1.04-3.48-4.63-1.55-5.76-1.58-1.06-.03-3.02-1.26-4.48-1.14h0ZM232.38,159.06c-.09-3.23-5.57-1.39-7.22-.3l7.22.3ZM214.89,162.68c-4.39.03-3.83,3.24-7,4.75-1.76.84-8.52,1.97-9.2,3.18-.27.47.37,2.73.59,2.87.57.39,2.35-.38,3.27-.43.7-.04,1.51.56,2.29.38,1.05-.24,2.52-2.73,3.82-3.44,3.88-2.13,7.41-.34,6.25-7.31h-.02ZM197.41,167.51c-.78-.67-3.68,1-4.62,1.06-1.23.07-2.59-1.71-3.81-.76.3,3.35,10.44,1.42,8.43-.3h0ZM198.02,171.12c-2.57.81-7.74-.93-8.45,2.4-.99.03-.26-2.07-2.1-1.21-.5.24-.87,1.21-.92,1.81h-.59c.39-1.67-1.89-1.54-3.02-.91,1.11,1.39,1.79,3.18,3.83,2.72.19-.04.88-2.14,2.19-1.21.31.23-1.68,1.47-1.21,2.4,4.06,1.55,4.96-.86,8.43-1.2l-2.41,2.4c2.19-.28,4.59-.99,3-3.3,1.24-1.36,1.08.66,1.54.74.15.03.65-.45.78-.33.6.51,1.14,2.55,2.53,3.19,4.74,2.16,5.05-4.82.33-4.51-1.08.07-2.32,1.21-2.45,1.19-.24-.03-1.39-3.08-3.9-1.8.22-1.27,2.85-.31,2.4-2.4h0l.02.02Z"/>
      <path class="st0" d="M197.41,154.84c.98.53,1.63,2.75,1.81,3.62-1.67-.7-2.6-1.69-2.8-1.75-1.56-.54-4.39,1.81-4.44-1.27,1.2.94,5.03.61,5.42-.6h.01Z"/>
      <path class="st0" d="M203.44,105.41c1.71-2.92,1.39.71,1.97,1.65.08.13,1.57,1.22,2.25,1.97-1.39-.31-2.16-.57-3.62,0-.64-.75.72-3.48.59-3.61-.11-.12-.86.1-1.21,0h.02Z"/>
      <path class="st0" d="M344.47,141.02c.09.06-.05,1.14.34,1.2,1.89.26,2.92-2.91,5.71.87-2.89-.42-2,.07-.6,2.11-1.22.24-1.58-1.11-2.73-1.21-.85-.08-2.41.83-2.69.62-.2-.15-1.98-5.02-.03-3.57h0v-.02Z"/>
      <path class="st0" d="M289.56,109.54c-.17.29-1.43.41-1.71,1,.91,1.48,2.51.61,3.81.91.57.13-.08,1.92,2.35.55.73-.42.15-1.36,1.06-1.15.6,2.24-1.02,1.67-1.84,2.67-1.28,1.57-.17,2.65-4.18,2.76.21-.93-.65-1.99-.65-2.68,0-.51,1.9.04,1.24-1.54-.66-.22-2.16.66-2.33.53-2.61-1.93,1.49-3.87.53-6.56,1.1.25,2.22,2.67,1.71,3.52h0Z"/>
    </g>
  </g>
</svg>