<?xml version="1.0" encoding="UTF-8"?>
<svg id="Capa_1" xmlns="http://www.w3.org/2000/svg" version="1.1" viewBox="0 0 600 232">
  <!-- Generator: Adobe Illustrator 30.2.1, SVG Export Plug-In . SVG Version: 2.1.1 Build 1)  -->
  <defs>
    <style>
      .st0 {
        fill: #fff;
      }
    </style>
  </defs>
  <g>
    <g>
      <path class="st0" d="M292.76,93.98c0,3.3-1,6.14-2.99,8.51-2.11,2.49-4.78,3.73-8.03,3.73-1.21,0-3.04-.03-5.48-.09s-4.27-.09-5.48-.09c-.89,0-2.23.04-4.03.11-1.79.08-3.14.11-4.03.11-.47,0-.71-.22-.71-.65,0-2.09.1-5.22.3-9.41.2-4.18.3-7.32.3-9.41,0-2.2-.1-5.51-.3-9.92s-.3-7.72-.3-9.92c0-.42.24-.63.71-.63,1.69,0,4.23,0,7.63.03,3.4.02,5.95.03,7.66.03,3.99,0,7.16.74,9.54,2.22,2.88,1.8,4.33,4.6,4.33,8.4,0,1.31-.38,2.67-1.14,4.08-.76,1.41-1.68,2.48-2.76,3.2-.55.36-.83.6-.83.71s.27.32.83.63c1.44.8,2.6,1.97,3.47,3.52s1.31,3.16,1.31,4.83h0ZM284.76,77.64c0-2.68-1.2-4.48-3.59-5.41-1.44-.55-3.81-.83-7.09-.83s-4.78.24-4.78.71c0,.63-.03,1.57-.09,2.82s-.09,2.2-.09,2.85c0,.44,0,1.11.03,2.02.02.91.03,1.59.03,2.05,0,.55,2.14.83,6.43.83,6.09,0,9.14-1.68,9.14-5.04h0ZM285.52,93.7c0-2.32-1.03-3.88-3.1-4.7-1.31-.53-3.35-.8-6.12-.8-4.78,0-7.17.26-7.17.77v4.67c0,.68.02,1.73.06,3.13s.06,2.46.06,3.16c0,.19.61.33,1.82.43s3.02.14,5.41.14c3,0,5.15-.39,6.46-1.17,1.73-1.03,2.59-2.9,2.59-5.64h0Z"/>
      <path class="st0" d="M335.23,86.3c0,5.64-1.8,10.49-5.41,14.55-3.76,4.21-8.43,6.32-14.01,6.32s-10.27-2.1-14.01-6.29c-3.61-4.04-5.41-8.9-5.41-14.57s1.82-10.47,5.47-14.55c3.76-4.23,8.41-6.35,13.95-6.35s10.22,2.12,13.98,6.35c3.62,4.06,5.44,8.91,5.44,14.55h0ZM328.37,86.21c0-3.72-1.16-6.95-3.47-9.71-2.43-2.92-5.48-4.38-9.14-4.38s-6.64,1.48-9.05,4.44c-2.28,2.77-3.42,6.02-3.42,9.74s1.14,6.94,3.42,9.71c2.41,2.96,5.43,4.44,9.05,4.44s6.74-1.48,9.17-4.44c2.3-2.77,3.44-6.03,3.44-9.79h0Z"/>
      <path class="st0" d="M362.7,69.22c-.38.63-.9,1.58-1.57,2.85-.21.59-.58,1.42-1.11,2.5-.11.17-.27.26-.46.26.02,0-.9-.34-2.75-1.01s-3.37-1.01-4.57-1.01c-3.49,0-5.24,1.54-5.24,4.61,0,1.71,1.22,3.2,3.67,4.47,4.12,2.14,6.39,3.38,6.83,3.7,2.45,1.95,3.67,4.59,3.67,7.91,0,4.25-1.68,7.6-5.04,10.05-3.02,2.2-6.73,3.3-11.13,3.3-2.05,0-3.15-.23-3.3-.68-.08-.72-.25-1.77-.51-3.16-.15-.57-.39-1.42-.71-2.56-.06-.17-.09-.33-.09-.48,0-.27.14-.4.43-.4.46,0,1.15.05,2.09.14.94.1,1.65.14,2.12.14,5.88,0,8.82-1.9,8.82-5.69,0-1.86-1.19-3.47-3.56-4.84-4.33-2.47-6.54-3.75-6.63-3.84-2.39-1.94-3.59-4.54-3.59-7.8,0-3.53,1.16-6.36,3.47-8.48,2.26-2.05,5.18-3.07,8.77-3.07,1.52,0,3.26.25,5.24.74,2.14.55,3.76,1.21,4.84,1.99.09.08.19.2.28.37h.03Z"/>
      <path class="st0" d="M404.71,86.21c0,5.05-1.51,9.51-4.53,13.38-3.17,4.06-7.19,6.41-12.07,7.03.7,2.11,1.94,4.01,3.73,5.72.11.11.17.24.17.37,0,.51-.65.82-1.94.91.02,0-.84,0-2.56,0-2.3,0-3.62-.04-3.96-.11-.97-.23-1.51-2.54-1.62-6.95-4.84-.95-8.74-3.36-11.7-7.23-2.9-3.76-4.36-8.13-4.36-13.12,0-5.56,1.83-10.38,5.49-14.46,3.78-4.23,8.42-6.35,13.92-6.35s10.17,2.12,13.95,6.35c3.64,4.08,5.47,8.9,5.47,14.46h0ZM397.91,86.21c0-3.72-1.17-6.95-3.5-9.68-2.45-2.87-5.5-4.3-9.17-4.3s-6.63,1.46-9.08,4.38c-2.3,2.75-3.44,5.98-3.44,9.68s1.15,6.91,3.44,9.68c2.43,2.94,5.46,4.41,9.08,4.41s6.75-1.46,9.19-4.38c2.32-2.77,3.47-6.03,3.47-9.79h.01Z"/>
      <path class="st0" d="M442,66.97c0,2.2-.09,5.5-.27,9.89s-.27,7.69-.27,9.89c0,.72.01,1.8.03,3.23.02,1.43.03,2.5.03,3.2,0,3.97-.37,6.72-1.11,8.26-1.14,2.35-3.35,3.95-6.63,4.78-2.01.51-4.85.77-8.51.77-6.64,0-11-1.1-13.07-3.3-1.59-1.71-2.39-5.12-2.39-10.25,0-.63,0-1.68.03-3.17.02-1.49.03-2.66.03-3.52,0-2.24-.09-6.37-.28-12.38,0-1.56-.09-3.88-.26-6.97-.02-.23-.03-.38-.03-.46,0-.4.25-.6.74-.6.78,0,1.83,0,3.16.03,1.54.02,2.58.03,3.13.03.44,0,.65.17.65.51,0,2.89-.06,7.22-.19,13.01-.12,5.79-.19,10.12-.19,13.01,0,3.26.73,5.48,2.19,6.63,1.25,1.03,3.56,1.54,6.92,1.54,3.05,0,5.23-.42,6.52-1.25,1.63-1.04,2.45-3,2.45-5.86s-.05-7.5-.14-13.51c-.09-6.01-.14-10.51-.14-13.51,0-.3.27-.49.82-.57.4-.06.97-.06,1.71,0,.87.08,1.29.11,1.25.11.34,0,.86-.03,1.55-.08.69-.06,1.21-.09,1.55-.09.47,0,.71.21.71.63h.01Z"/>
      <path class="st0" d="M474.82,100.56c0,.3-.08.74-.23,1.31-.17.72-.28,1.16-.31,1.31-.06.68-.19,1.68-.4,2.99-.09.34-.34.51-.74.51-.19,0-.55-.04-1.08-.11-2.33-.34-5.95-.51-10.85-.51-1.38,0-3.47.04-6.26.11-2.79.08-4.88.11-6.26.11-.63,0-.94-.27-.94-.83,0-2.13.12-5.32.36-9.58.24-4.26.35-7.45.35-9.58s-.11-6.2-.34-12.1c-.04-1.52-.14-3.79-.31-6.8l-.03-.4c-.02-.44.23-.65.74-.65,1.33,0,3.32.04,5.98.11s4.65.11,5.98.11,3.17-.04,5.71-.11c2.53-.08,4.44-.11,5.71-.11.89,0,1.38.28,1.45.83.4,2.5.6,4.06.6,4.67,0,.44-.21.65-.63.65-1.61,0-4.06-.09-7.33-.27s-5.73-.27-7.39-.27c-1.56,0-2.54.21-2.95.63s-.61,1.45-.61,3.1v4.24c0,1.16.03,1.83.08,2.02.17.59.66.88,1.48.88.23,0,.55,0,.97-.03h.97c3.72,0,7.06-.07,10.02-.2,1.16-.04,2.52-.13,4.1-.28.4-.04.6.13.6.51,0,.61-.07,1.54-.21,2.79s-.21,2.19-.21,2.82c0,.34-.28.51-.86.51-.23,0-1.07-.07-2.53-.2-1.06-.11-3.46-.17-7.17-.17-3.13,0-5.12.04-5.95.11-.76.06-1.2.46-1.31,1.2.02-.13.03.6.03,2.19v4.21c0,1.97.3,3.21.91,3.7.47.4,1.66.6,3.56.6l3.13-.03c1.33,0,5.06-.23,11.19-.68l.43-.03c.38-.04.57.2.57.71h-.02Z"/>
      <path class="st0" d="M502.03,69.22c-.38.63-.9,1.58-1.57,2.85-.21.59-.58,1.42-1.11,2.5-.11.17-.27.26-.46.26.02,0-.9-.34-2.75-1.01s-3.37-1.01-4.57-1.01c-3.49,0-5.24,1.54-5.24,4.61,0,1.71,1.22,3.2,3.67,4.47,4.12,2.14,6.39,3.38,6.83,3.7,2.45,1.95,3.67,4.59,3.67,7.91,0,4.25-1.68,7.6-5.04,10.05-3.02,2.2-6.73,3.3-11.13,3.3-2.05,0-3.15-.23-3.3-.68-.08-.72-.25-1.77-.51-3.16-.15-.57-.39-1.42-.71-2.56-.06-.17-.09-.33-.09-.48,0-.27.14-.4.43-.4.46,0,1.15.05,2.09.14.94.1,1.65.14,2.12.14,5.88,0,8.82-1.9,8.82-5.69,0-1.86-1.19-3.47-3.56-4.84-4.33-2.47-6.54-3.75-6.63-3.84-2.39-1.94-3.59-4.54-3.59-7.8,0-3.53,1.16-6.36,3.47-8.48,2.26-2.05,5.18-3.07,8.77-3.07,1.52,0,3.26.25,5.24.74,2.14.55,3.76,1.21,4.84,1.99.09.08.19.2.28.37h.03Z"/>
    </g>
    <g>
      <g>
        <path class="st0" d="M253.21,145.22c0,5.41-1.54,10.09-4.62,14.04-3.35,4.3-7.65,6.44-12.89,6.44-1,0-2.51-.04-4.52-.12-2.01-.08-3.52-.12-4.52-.12-.91,0-2.27.04-4.09.12-1.82.08-3.18.12-4.09.12-.48,0-.72-.24-.72-.72,0-2.1.08-5.27.25-9.51.16-4.24.25-7.42.25-9.53,0-2.23-.08-5.59-.23-10.08s-.23-7.85-.23-10.08c0-.4.25-.61.75-.61.71,0,1.78,0,3.19.03,1.42.02,2.48.03,3.19.03.65,0,1.66,0,3.01-.03,1.35-.02,2.37-.03,3.06-.03,6.68,0,11.66,1.26,14.94,3.78,2.35,1.81,4.17,4.25,5.46,7.31,1.21,2.85,1.82,5.84,1.82,8.96h-.01ZM246.13,145.22c0-4.16-1.18-7.55-3.55-10.17-2.47-2.72-5.76-4.07-9.88-4.07-3.41,0-4.79-.02-4.13-.06-2.25.12-3.38.53-3.38,1.24,0,1.48-.03,3.7-.1,6.66s-.1,5.18-.1,6.66.03,3.66.1,6.59.1,5.12.1,6.59c0,.73,1.16,1.16,3.47,1.27-.31-.02,1.1-.03,4.22-.03,2.21,0,3.98-.23,5.29-.69,1.62-.58,3.07-1.65,4.36-3.21,2.41-2.93,3.61-6.52,3.61-10.78h0Z"/>
        <path class="st0" d="M285.26,159.9c0,.31-.08.75-.23,1.33-.17.73-.28,1.18-.32,1.33-.06.69-.19,1.7-.4,3.03-.1.35-.35.52-.75.52-.19,0-.56-.04-1.1-.12-2.37-.35-6.04-.52-11.01-.52-1.41,0-3.52.04-6.36.12-2.83.08-4.95.12-6.36.12-.64,0-.95-.28-.95-.84,0-2.16.12-5.4.36-9.72s.36-7.57.36-9.72-.12-6.29-.35-12.28c-.04-1.54-.14-3.84-.32-6.91l-.03-.4c-.02-.44.23-.66.75-.66,1.35,0,3.37.04,6.07.12s4.72.12,6.07.12,3.22-.04,5.79-.12,4.5-.12,5.79-.12c.91,0,1.4.28,1.47.84.4,2.54.61,4.12.61,4.74,0,.44-.21.66-.64.66-1.64,0-4.12-.09-7.44-.27s-5.82-.27-7.5-.27c-1.58,0-2.58.21-2.99.64s-.62,1.47-.62,3.15v4.31c0,1.18.03,1.86.09,2.05.17.6.67.9,1.5.9.23,0,.56,0,.98-.03h.98c3.77,0,7.17-.07,10.17-.2,1.17-.04,2.56-.13,4.16-.29.4-.04.61.14.61.52,0,.62-.07,1.56-.22,2.83-.14,1.27-.22,2.22-.22,2.86,0,.35-.29.52-.87.52-.23,0-1.09-.07-2.57-.2-1.08-.12-3.51-.17-7.28-.17-3.18,0-5.19.04-6.04.12-.77.06-1.21.46-1.33,1.21.02-.13.03.61.03,2.22v4.28c0,2,.31,3.26.92,3.76.48.4,1.69.61,3.61.61l3.18-.03c1.35,0,5.13-.23,11.35-.69l.43-.03c.39-.04.58.2.58.72l.04-.04Z"/>
      </g>
      <g>
        <path class="st0" d="M340.89,130.63c0,.5-.17.75-.52.75-.54,0-3.95-.12-10.23-.35-.17,5.88-.26,10.58-.26,14.13,0,2.22.08,5.54.25,9.97.16,4.43.25,7.75.25,9.97,0,.4-.28.61-.84.61-.35,0-.88-.03-1.59-.09s-1.25-.09-1.62-.09-.88.03-1.59.09-1.24.09-1.59.09c-.48,0-.72-.24-.72-.72,0-2.2.09-5.49.27-9.9.18-4.4.27-7.71.27-9.92,0-3.43-.11-8.14-.32-14.13-4.97.31-8.61.46-10.92.46-.23,0-.35-.1-.35-.29,0-.35.09-.85.26-1.5.21-.85.34-1.35.38-1.5.04-.67.17-1.61.4-2.8.1-.25.26-.38.49-.38l.35.03c6.82.4,11.32.61,13.49.61,1.93,0,5.08-.14,9.45-.43,2.99-.19,4.23-.29,3.73-.29.5,0,.78.17.84.52-.04-.21-.06.72-.06,2.8,0,.25.03.64.09,1.17s.09.93.09,1.2h0Z"/>
        <path class="st0" d="M382.55,145.42c0,5.72-1.83,10.64-5.49,14.76-3.81,4.28-8.55,6.41-14.22,6.41s-10.42-2.13-14.22-6.39c-3.66-4.1-5.49-9.03-5.49-14.79s1.85-10.62,5.55-14.76c3.81-4.3,8.53-6.44,14.16-6.44s10.37,2.15,14.19,6.44c3.68,4.12,5.52,9.04,5.52,14.76h0ZM375.59,145.33c0-3.77-1.18-7.06-3.53-9.85-2.47-2.97-5.56-4.45-9.27-4.45s-6.74,1.5-9.19,4.51c-2.31,2.81-3.47,6.11-3.47,9.88s1.16,7.04,3.47,9.85c2.45,3,5.51,4.51,9.19,4.51s6.84-1.5,9.3-4.51c2.33-2.81,3.5-6.13,3.5-9.94Z"/>
        <path class="st0" d="M419.16,159.03c0,.23-.18.56-.55.98-3.76,4.35-8.41,6.53-13.96,6.53s-10.4-2.11-13.87-6.33c-3.24-3.93-4.85-8.84-4.85-14.74s1.65-10.83,4.94-14.79c3.51-4.28,8.14-6.41,13.9-6.41s10.35,1.97,13.55,5.92c.31.4.46.74.46,1.01,0,.33-.51,1.3-1.53,2.9-1.02,1.61-1.64,2.41-1.85,2.41-.25,0-.84-.47-1.76-1.42-1.14-1.16-2.21-2.02-3.21-2.6-1.66-.94-3.49-1.42-5.49-1.42-3.81,0-6.78,1.45-8.9,4.36-1.89,2.6-2.83,5.88-2.83,9.82s.93,7.25,2.8,9.91c2.12,2.99,5.08,4.48,8.87,4.48,1.89,0,3.71-.47,5.46-1.42,1.16-.62,2.33-1.49,3.52-2.63,1-.94,1.55-1.42,1.65-1.42.12,0,.75.77,1.91,2.3s1.73,2.37,1.73,2.53v.03Z"/>
        <path class="st0" d="M458.1,165.36c0,.23-.23.35-.69.35-.37,0-.9-.03-1.6-.09s-1.24-.09-1.6-.09-.92.03-1.65.09c-.73.06-1.28.09-1.65.09-.54,0-1.23-1.46-2.07-4.38s-1.69-4.4-2.56-4.44c-.71-.04-2.57-.06-5.58-.06h-4.57c-3.18,0-4.99.02-5.43.06-.69.06-1.43,1.54-2.21,4.45s-1.38,4.36-1.81,4.36h-6.5c-.39,0-.58-.13-.58-.4,0-.19.13-.63.4-1.3l7.08-19.36c.6-1.56,2.41-6.06,5.43-13.49.54-1.23,1.27-3.09,2.2-5.58.23-.73.48-1.1.75-1.1.37,0,.91.05,1.62.14.71.1,1.25.14,1.62.14s.87-.05,1.58-.16c.7-.11,1.22-.16,1.55-.16.17,0,.41.36.72,1.07.46,1.08,2.75,6.89,6.85,17.42,5.8,14.81,8.7,22.29,8.7,22.42v.02ZM444.64,149.41c0-.56-.87-3.06-2.6-7.51-1.68-4.31-2.86-7.15-3.55-8.49-3.99,10.17-5.98,15.5-5.98,15.98,0,.65.73,1.04,2.2,1.16.08.02,1.02.03,2.83.03h2.98c2.75,0,4.13-.38,4.13-1.16h-.01Z"/>
        <path class="st0" d="M501.99,164.98c0,.48-.24.72-.72.72-.35,0-.87-.03-1.58-.09-.7-.06-1.23-.09-1.57-.09s-.88.03-1.59.09-1.24.09-1.59.09c-.48,0-.72-.32-.72-.95,0-2.45.08-6.12.23-11.01.15-4.89.23-8.56.23-11.01,0-.37-.08-.55-.23-.55-.17,0-.31.11-.4.32-.98,2.1-3.3,7.71-6.96,16.82-.6,1.75-1.45,3.94-2.57,6.56-.13.25-.83.38-2.08.38-1.81,0-2.81-.16-3.01-.49-.65-1.56-1.59-3.75-2.8-6.56-1.6-3.81-4.05-9.5-7.37-17.05-.06-.13-.18-.27-.38-.4-.15.12-.23.33-.23.64,0,2.48.04,6.21.13,11.18s.13,8.7.13,11.18c0,.64-.24.95-.72.95-.33,0-.83-.03-1.5-.09s-1.18-.09-1.5-.09c-.35,0-.86.03-1.55.09-.68.06-1.2.09-1.55.09-.48,0-.72-.18-.72-.55,0-2.14.1-5.34.3-9.61.2-4.27.3-7.47.3-9.61s-.1-5.54-.3-9.98c-.2-4.44-.3-7.77-.3-9.98,0-.36.22-.58.66-.64,2.62-.35,4.59-.52,5.92-.52.19,0,.46.39.81,1.18,4.66,10.25,8.67,19.4,12.02,27.45.79,1.89,1.26,2.83,1.42,2.83.19,0,.61-.77,1.24-2.31,2.62-6.24,6.25-15.51,10.89-27.8.29-.75.61-1.13.95-1.13.65,0,1.64.04,2.96.12,1.32.08,2.31.12,2.96.12.48,0,.72.23.72.69,0,2.22-.07,5.54-.22,9.98-.14,4.44-.22,7.77-.22,9.98s.08,5.3.25,9.53c.16,4.24.25,7.41.25,9.51h0Z"/>
        <path class="st0" d="M546.29,145.42c0,5.72-1.83,10.64-5.49,14.76-3.81,4.28-8.55,6.41-14.22,6.41s-10.42-2.13-14.22-6.39c-3.66-4.1-5.49-9.03-5.49-14.79s1.85-10.62,5.55-14.76c3.81-4.3,8.53-6.44,14.16-6.44s10.37,2.15,14.19,6.44c3.68,4.12,5.52,9.04,5.52,14.76h0ZM539.32,145.33c0-3.77-1.18-7.06-3.52-9.85-2.47-2.97-5.56-4.45-9.27-4.45s-6.74,1.5-9.19,4.51c-2.31,2.81-3.47,6.11-3.47,9.88s1.16,7.04,3.47,9.85c2.45,3,5.51,4.51,9.19,4.51s6.84-1.5,9.3-4.51c2.33-2.81,3.5-6.13,3.5-9.94h0ZM534.96,116.33c-.29.79-2.42,2.25-6.39,4.39-3.87,2.1-6.27,3.15-7.19,3.15-.35,0-.65-.48-.9-1.45-.19-.75-.29-1.39-.29-1.91,0-.19.18-.38.55-.55,3.18-1.58,6.47-3.67,9.88-6.27.08-.08.22-.16.43-.26.1.04.22.13.38.26.83.69,1.9,1.45,3.21,2.25.1.06.2.18.32.38h0Z"/>
      </g>
    </g>
  </g>
  <path class="st0" d="M126.36,43.37c-40.13,0-72.66,32.51-72.66,72.63s32.53,72.63,72.66,72.63,72.64-32.53,72.64-72.63-32.53-72.63-72.64-72.63ZM68.48,150.34l18.49-.03.04,11.71-8.32,1.44c-3.83-4-7.41-8.06-10.21-13.13h0ZM134.95,183.01c-4-2.67-7.62-5.05-11.82-7-11.17-5.2-23.38-6.94-35.68-5.24-2.25-1.33-4.06-2.91-5.87-4.73,16.14-3.04,31.41-1.16,45.83,6.07,7.4,3.71,15.03,5.89,23.48,6.57-5.2,2.48-10.36,3.37-15.94,4.33ZM110.33,144.88l12.64-.03-.13,21.85c-9.64-3.66-19.12-5.41-29.25-4.97l-.04-11.4,19.37-.05-2.59-5.41h0ZM168.3,168.69c-11.04-1.23-21.75.04-31.84,4.12-2.33-.92-4.41-1.73-6.7-2.95,13.51-6.62,28.72-8.59,43.79-5.88-1.56,1.79-3.32,3.02-5.25,4.72h0ZM142.5,144.88l-2.71,5.41h19.44l.03,9.53c-10.21.19-19.82,2.35-29.41,6.67l-.06-21.64,12.72.03h0ZM176,161.49c-3.44-.72-6.59-1.19-10.15-1.51v-9.64h18.44c-2.24,4.1-5.14,7.51-8.29,11.14h0ZM176.65,134.06l6.1-.14-9.84-19.55,4.75-.2-15.16-32.64-14.97,32.56c1.52.45,3.02-.05,4.72.26l-2.63,5.24-10.93-20.47,6.36-.11-18.7-37.93-18.65,37.86,6.35.14-10.86,20.47-2.68-5.18,4.83-.18-15.13-32.63-15.12,32.58,4.72.24-9.82,19.52,6.06.14-8.04,15.53c-16.69-27.67-9.96-63.43,14.07-84.45,12.54-10.95,28.59-16.72,45.27-16.52,15.83.17,30.99,5.92,42.98,16.29,24.3,21.02,30.97,56.58,14.51,84.7l-8.19-15.5v-.03Z"/>
</svg>